<?xml version="1.0" encoding="utf-8" standalone="no"?>
<!DOCTYPE svg PUBLIC "-//W3C//DTD SVG 1.1//EN"
  "http://www.w3.org/Graphics/SVG/1.1/DTD/svg11.dtd">
<svg xmlns:xlink="http://www.w3.org/1999/xlink" width="432pt" height="216pt" viewBox="0 0 432 216" xmlns="http://www.w3.org/2000/svg" version="1.1">
 <metadata>
  <rdf:RDF xmlns:dc="http://purl.org/dc/elements/1.1/" xmlns:cc="http://creativecommons.org/ns#" xmlns:rdf="http://www.w3.org/1999/02/22-rdf-syntax-ns#">
   <cc:Work>
    <dc:type rdf:resource="http://purl.org/dc/dcmitype/StillImage"/>
    <dc:date>2025-04-30T09:59:49.337057</dc:date>
    <dc:format>image/svg+xml</dc:format>
    <dc:creator>
     <cc:Agent>
      <dc:title>Matplotlib v3.9.1, https://matplotlib.org/</dc:title>
     </cc:Agent>
    </dc:creator>
   </cc:Work>
  </rdf:RDF>
 </metadata>
 <defs>
  <style type="text/css">*{stroke-linejoin: round; stroke-linecap: butt}</style>
 </defs>
 <g id="figure_1">
  <g id="patch_1">
   <path d="M 0 216 
L 432 216 
L 432 0 
L 0 0 
z
" style="fill: #ffffff"/>
  </g>
  <g id="axes_1">
   <g id="patch_2">
    <path d="M 44.421875 175.819375 
L 426 175.819375 
L 426 6.81612 
L 44.421875 6.81612 
z
" style="fill: #ffffff"/>
   </g>
   <g id="matplotlib.axis_1">
    <g id="xtick_1">
     <g id="line2d_1">
      <defs>
       <path id="m45c456b071" d="M 0 0 
L 0 3.5 
" style="stroke: #000000; stroke-width: 0.8"/>
      </defs>
      <g>
       <use xlink:href="#m45c456b071" x="116.538315" y="175.819375" style="stroke: #000000; stroke-width: 0.8"/>
      </g>
     </g>
     <g id="text_1">
      <!-- 2 -->
      <g transform="translate(113.538315 191.151875) scale(0.12 -0.12)">
       <defs>
        <path id="TimesNewRomanPSMT-32" d="M 2934 816 
L 2638 0 
L 138 0 
L 138 116 
Q 1241 1122 1691 1759 
Q 2141 2397 2141 2925 
Q 2141 3328 1894 3587 
Q 1647 3847 1303 3847 
Q 991 3847 742 3664 
Q 494 3481 375 3128 
L 259 3128 
Q 338 3706 661 4015 
Q 984 4325 1469 4325 
Q 1984 4325 2329 3994 
Q 2675 3663 2675 3213 
Q 2675 2891 2525 2569 
Q 2294 2063 1775 1497 
Q 997 647 803 472 
L 1909 472 
Q 2247 472 2383 497 
Q 2519 522 2628 598 
Q 2738 675 2819 816 
L 2934 816 
z
" transform="scale(0.015625)"/>
       </defs>
       <use xlink:href="#TimesNewRomanPSMT-32"/>
      </g>
     </g>
    </g>
    <g id="xtick_2">
     <g id="line2d_2">
      <g>
       <use xlink:href="#m45c456b071" x="189.567621" y="175.819375" style="stroke: #000000; stroke-width: 0.8"/>
      </g>
     </g>
     <g id="text_2">
      <!-- 4 -->
      <g transform="translate(186.567621 191.151875) scale(0.12 -0.12)">
       <defs>
        <path id="TimesNewRomanPSMT-34" d="M 2978 1563 
L 2978 1119 
L 2409 1119 
L 2409 0 
L 1894 0 
L 1894 1119 
L 100 1119 
L 100 1519 
L 2066 4325 
L 2409 4325 
L 2409 1563 
L 2978 1563 
z
M 1894 1563 
L 1894 3666 
L 406 1563 
L 1894 1563 
z
" transform="scale(0.015625)"/>
       </defs>
       <use xlink:href="#TimesNewRomanPSMT-34"/>
      </g>
     </g>
    </g>
    <g id="xtick_3">
     <g id="line2d_3">
      <g>
       <use xlink:href="#m45c456b071" x="262.596927" y="175.819375" style="stroke: #000000; stroke-width: 0.8"/>
      </g>
     </g>
     <g id="text_3">
      <!-- 6 -->
      <g transform="translate(259.596927 191.151875) scale(0.12 -0.12)">
       <defs>
        <path id="TimesNewRomanPSMT-36" d="M 2869 4325 
L 2869 4209 
Q 2456 4169 2195 4045 
Q 1934 3922 1679 3669 
Q 1425 3416 1258 3105 
Q 1091 2794 978 2366 
Q 1428 2675 1881 2675 
Q 2316 2675 2634 2325 
Q 2953 1975 2953 1425 
Q 2953 894 2631 456 
Q 2244 -75 1606 -75 
Q 1172 -75 869 213 
Q 275 772 275 1663 
Q 275 2231 503 2743 
Q 731 3256 1154 3653 
Q 1578 4050 1965 4187 
Q 2353 4325 2688 4325 
L 2869 4325 
z
M 925 2138 
Q 869 1716 869 1456 
Q 869 1156 980 804 
Q 1091 453 1309 247 
Q 1469 100 1697 100 
Q 1969 100 2183 356 
Q 2397 613 2397 1088 
Q 2397 1622 2184 2012 
Q 1972 2403 1581 2403 
Q 1463 2403 1327 2353 
Q 1191 2303 925 2138 
z
" transform="scale(0.015625)"/>
       </defs>
       <use xlink:href="#TimesNewRomanPSMT-36"/>
      </g>
     </g>
    </g>
    <g id="xtick_4">
     <g id="line2d_4">
      <g>
       <use xlink:href="#m45c456b071" x="335.626234" y="175.819375" style="stroke: #000000; stroke-width: 0.8"/>
      </g>
     </g>
     <g id="text_4">
      <!-- 8 -->
      <g transform="translate(332.626234 191.151875) scale(0.12 -0.12)">
       <defs>
        <path id="TimesNewRomanPSMT-38" d="M 1228 2134 
Q 725 2547 579 2797 
Q 434 3047 434 3316 
Q 434 3728 753 4026 
Q 1072 4325 1600 4325 
Q 2113 4325 2425 4047 
Q 2738 3769 2738 3413 
Q 2738 3175 2569 2928 
Q 2400 2681 1866 2347 
Q 2416 1922 2594 1678 
Q 2831 1359 2831 1006 
Q 2831 559 2490 242 
Q 2150 -75 1597 -75 
Q 994 -75 656 303 
Q 388 606 388 966 
Q 388 1247 577 1523 
Q 766 1800 1228 2134 
z
M 1719 2469 
Q 2094 2806 2194 3001 
Q 2294 3197 2294 3444 
Q 2294 3772 2109 3958 
Q 1925 4144 1606 4144 
Q 1288 4144 1088 3959 
Q 888 3775 888 3528 
Q 888 3366 970 3203 
Q 1053 3041 1206 2894 
L 1719 2469 
z
M 1375 2016 
Q 1116 1797 991 1539 
Q 866 1281 866 981 
Q 866 578 1086 336 
Q 1306 94 1647 94 
Q 1984 94 2187 284 
Q 2391 475 2391 747 
Q 2391 972 2272 1150 
Q 2050 1481 1375 2016 
z
" transform="scale(0.015625)"/>
       </defs>
       <use xlink:href="#TimesNewRomanPSMT-38"/>
      </g>
     </g>
    </g>
    <g id="xtick_5">
     <g id="line2d_5">
      <g>
       <use xlink:href="#m45c456b071" x="408.65554" y="175.819375" style="stroke: #000000; stroke-width: 0.8"/>
      </g>
     </g>
     <g id="text_5">
      <!-- 10 -->
      <g transform="translate(402.65554 191.151875) scale(0.12 -0.12)">
       <defs>
        <path id="TimesNewRomanPSMT-31" d="M 750 3822 
L 1781 4325 
L 1884 4325 
L 1884 747 
Q 1884 391 1914 303 
Q 1944 216 2037 169 
Q 2131 122 2419 116 
L 2419 0 
L 825 0 
L 825 116 
Q 1125 122 1212 167 
Q 1300 213 1334 289 
Q 1369 366 1369 747 
L 1369 3034 
Q 1369 3497 1338 3628 
Q 1316 3728 1258 3775 
Q 1200 3822 1119 3822 
Q 1003 3822 797 3725 
L 750 3822 
z
" transform="scale(0.015625)"/>
        <path id="TimesNewRomanPSMT-30" d="M 231 2094 
Q 231 2819 450 3342 
Q 669 3866 1031 4122 
Q 1313 4325 1613 4325 
Q 2100 4325 2488 3828 
Q 2972 3213 2972 2159 
Q 2972 1422 2759 906 
Q 2547 391 2217 158 
Q 1888 -75 1581 -75 
Q 975 -75 572 641 
Q 231 1244 231 2094 
z
M 844 2016 
Q 844 1141 1059 588 
Q 1238 122 1591 122 
Q 1759 122 1940 273 
Q 2122 425 2216 781 
Q 2359 1319 2359 2297 
Q 2359 3022 2209 3506 
Q 2097 3866 1919 4016 
Q 1791 4119 1609 4119 
Q 1397 4119 1231 3928 
Q 1006 3669 925 3112 
Q 844 2556 844 2016 
z
" transform="scale(0.015625)"/>
       </defs>
       <use xlink:href="#TimesNewRomanPSMT-31"/>
       <use xlink:href="#TimesNewRomanPSMT-30" x="50"/>
      </g>
     </g>
    </g>
    <g id="text_6">
     <!-- 通信带宽 (GB/s) -->
     <g transform="translate(193.377813 207.5625) scale(0.12 -0.12)">
      <defs>
       <path id="SimSun-901a" d="M 2750 3575 
L 3700 3575 
L 3700 2800 
L 2750 2800 
L 2750 3575 
z
M 4025 3575 
L 5025 3575 
L 5025 2800 
L 4025 2800 
L 4025 3575 
z
M 2750 2675 
L 3700 2675 
L 3700 1900 
L 2750 1900 
L 2750 2675 
z
M 4025 2675 
L 5025 2675 
L 5025 1900 
L 4025 1900 
L 4025 2675 
z
M 4325 725 
L 4325 625 
Q 4850 525 4900 225 
Q 5350 350 5350 675 
L 5350 3475 
L 5575 3625 
L 5175 3975 
L 4950 3700 
L 3975 3700 
Q 4150 3850 4075 4050 
Q 4425 4250 4787 4425 
Q 5150 4600 5450 4600 
L 5000 5100 
L 4675 4825 
L 2100 4825 
L 2300 4625 
Q 2525 4700 2875 4700 
L 4650 4700 
L 4000 4150 
Q 3625 4400 3075 4525 
L 3025 4425 
Q 3300 4250 3462 4087 
Q 3625 3925 3725 3700 
L 2775 3700 
L 2400 3950 
Q 2425 3375 2425 2225 
Q 2425 1075 2400 350 
L 2750 500 
L 2750 1775 
L 3700 1775 
L 3700 400 
L 4025 500 
L 4025 1775 
L 5025 1775 
L 5025 950 
Q 5025 700 4862 700 
Q 4700 700 4325 725 
z
M 750 4950 
Q 1150 4525 1250 4200 
Q 1350 3875 1512 3962 
Q 1675 4050 1675 4275 
Q 1675 4500 1450 4687 
Q 1225 4875 825 5050 
L 750 4950 
z
M 1575 825 
L 1575 2725 
L 1850 2900 
L 1375 3275 
L 1125 2975 
L 250 2975 
L 450 2775 
Q 675 2850 950 2850 
L 1250 2850 
L 1250 850 
Q 625 575 225 175 
L 575 -150 
Q 700 75 987 375 
Q 1275 675 1425 650 
Q 1575 625 1850 312 
Q 2125 0 2575 -162 
Q 3025 -325 3750 -350 
Q 4475 -375 5650 -375 
Q 5625 -100 6150 25 
L 6150 125 
Q 4800 -25 3712 12 
Q 2625 50 2212 312 
Q 1800 575 1575 825 
z
" transform="scale(0.015625)"/>
       <path id="SimSun-4fe1" d="M 3425 5175 
Q 3675 4875 3762 4662 
Q 3850 4450 3900 4150 
L 2000 4150 
L 2200 3950 
Q 2425 4025 2700 4025 
L 6150 4025 
L 5675 4500 
L 5350 4150 
L 4050 4150 
Q 4400 4425 4200 4687 
Q 4000 4950 3500 5250 
L 3425 5175 
z
M 3025 1325 
L 4950 1325 
L 4950 200 
L 3025 200 
L 3025 1325 
z
M 2375 3250 
L 2575 3050 
Q 2800 3125 3075 3125 
L 5625 3125 
L 5200 3550 
L 4900 3250 
L 2375 3250 
z
M 2350 2325 
L 2550 2125 
Q 2775 2200 3050 2200 
L 5575 2200 
L 5150 2600 
L 4850 2325 
L 2350 2325 
z
M 2675 1700 
Q 2700 1100 2700 525 
Q 2700 -50 2675 -675 
L 3025 -525 
L 3025 75 
L 4950 75 
L 4950 -575 
L 5300 -425 
Q 5275 -150 5275 100 
L 5275 1250 
L 5475 1375 
L 5100 1725 
L 4900 1450 
L 3050 1450 
L 2675 1700 
z
M 1550 3150 
L 1750 3300 
L 1475 3475 
Q 1700 3925 1912 4387 
Q 2125 4850 2275 4925 
L 1775 5225 
Q 1725 4875 1312 3875 
Q 900 2875 225 1975 
L 275 1900 
Q 725 2325 1225 3025 
L 1225 200 
Q 1225 -150 1200 -650 
L 1550 -525 
L 1550 3150 
z
" transform="scale(0.015625)"/>
       <path id="SimSun-5e26" d="M 1800 3175 
L 2175 3325 
Q 2150 3675 2150 4025 
L 3075 4025 
Q 3075 3600 3050 3200 
L 3425 3350 
Q 3400 3625 3400 4025 
L 4300 4025 
Q 4300 3575 4275 3175 
L 4650 3325 
Q 4625 3600 4625 4025 
L 5925 4025 
L 5525 4475 
L 5225 4150 
L 4625 4150 
L 4625 4725 
L 4800 4875 
L 4275 5150 
Q 4300 4725 4300 4150 
L 3400 4150 
L 3400 4750 
L 3575 4900 
L 3050 5175 
Q 3075 4750 3075 4150 
L 2150 4150 
L 2150 4700 
L 2325 4875 
L 1800 5150 
Q 1825 4725 1825 4150 
L 550 4150 
L 750 3950 
L 975 4025 
L 1825 4025 
Q 1825 3500 1800 3175 
z
M 3400 1850 
L 4675 1850 
L 4675 500 
Q 4675 350 4575 337 
Q 4475 325 3775 400 
L 3775 300 
Q 4350 125 4525 -250 
Q 4800 -125 4900 12 
Q 5000 150 5000 400 
L 5000 1725 
L 5200 1875 
L 4800 2200 
L 4625 1975 
L 3400 1975 
L 3400 2400 
L 3575 2525 
L 3075 2800 
L 5400 2800 
L 5100 2200 
L 5175 2175 
Q 5675 2700 6075 2725 
L 5675 3200 
L 5400 2925 
L 1075 2925 
L 1075 3225 
L 975 3225 
Q 900 2725 637 2537 
Q 375 2350 450 2175 
Q 525 2000 787 2100 
Q 1050 2200 1075 2800 
L 3075 2800 
L 3075 1975 
L 1850 1975 
L 1500 2150 
Q 1525 1600 1525 1037 
Q 1525 475 1500 -200 
L 1850 0 
L 1850 1850 
L 3075 1850 
Q 3075 -75 3050 -675 
L 3425 -525 
Q 3400 -50 3400 1850 
z
" transform="scale(0.015625)"/>
       <path id="SimSun-5bbd" d="M 4175 3125 
L 5900 3125 
L 5425 3600 
L 5050 3250 
L 4175 3250 
L 4175 3550 
L 4400 3675 
L 3825 3950 
Q 3850 3600 3850 3250 
L 2675 3250 
L 2675 3550 
L 2900 3725 
L 2325 3950 
Q 2350 3700 2350 3250 
L 725 3250 
L 925 3050 
L 1325 3125 
L 2350 3125 
Q 2350 2975 2325 2525 
L 2675 2700 
L 2675 3125 
L 3850 3125 
L 3850 2550 
L 4200 2700 
Q 4175 2950 4175 3125 
z
M 2975 2075 
Q 2975 1575 2762 937 
Q 2550 300 2075 -25 
Q 1600 -350 575 -600 
L 600 -675 
Q 1600 -525 2162 -250 
Q 2725 25 2987 562 
Q 3250 1100 3325 1600 
L 3575 1750 
L 2975 2075 
z
M 3975 -525 
L 5150 -525 
Q 5375 -525 5550 -475 
Q 5725 -425 5900 -175 
Q 5650 -100 5612 187 
Q 5575 475 5575 900 
L 5450 900 
Q 5425 100 5362 -75 
Q 5300 -250 5050 -250 
L 4100 -250 
Q 3700 -250 3700 50 
L 3700 950 
L 3925 1125 
L 3350 1400 
Q 3375 975 3375 675 
L 3375 -100 
Q 3375 -550 3975 -525 
z
M 1650 425 
L 2000 625 
L 2000 2275 
L 4450 2275 
L 4450 500 
L 4800 700 
Q 4775 950 4775 2175 
L 4975 2325 
L 4600 2625 
L 4425 2400 
L 2000 2400 
L 1650 2600 
Q 1675 2025 1675 1525 
Q 1675 1025 1650 425 
z
M 2700 5150 
Q 3075 4775 3187 4462 
Q 3300 4150 3475 4425 
Q 3650 4700 3425 4887 
Q 3200 5075 2750 5225 
L 2700 5150 
z
M 4950 3575 
L 5025 3525 
Q 5475 4050 5875 4025 
L 5425 4475 
L 5225 4250 
L 1150 4250 
L 1125 4550 
L 1000 4550 
Q 925 4050 700 3775 
Q 475 3500 725 3462 
Q 975 3425 1087 3600 
Q 1200 3775 1150 4125 
L 5250 4125 
L 4950 3575 
z
" transform="scale(0.015625)"/>
       <path id="TimesNewRomanPSMT-20" transform="scale(0.015625)"/>
       <path id="TimesNewRomanPSMT-28" d="M 1988 -1253 
L 1988 -1369 
Q 1516 -1131 1200 -813 
Q 750 -359 506 256 
Q 263 872 263 1534 
Q 263 2503 741 3301 
Q 1219 4100 1988 4444 
L 1988 4313 
Q 1603 4100 1356 3731 
Q 1109 3363 987 2797 
Q 866 2231 866 1616 
Q 866 947 969 400 
Q 1050 -31 1165 -292 
Q 1281 -553 1476 -793 
Q 1672 -1034 1988 -1253 
z
" transform="scale(0.015625)"/>
       <path id="TimesNewRomanPSMT-47" d="M 3928 4334 
L 4038 2997 
L 3928 2997 
Q 3763 3497 3500 3750 
Q 3122 4116 2528 4116 
Q 1719 4116 1297 3475 
Q 944 2934 944 2188 
Q 944 1581 1178 1081 
Q 1413 581 1792 348 
Q 2172 116 2572 116 
Q 2806 116 3025 175 
Q 3244 234 3447 350 
L 3447 1575 
Q 3447 1894 3398 1992 
Q 3350 2091 3248 2142 
Q 3147 2194 2891 2194 
L 2891 2313 
L 4531 2313 
L 4531 2194 
L 4453 2194 
Q 4209 2194 4119 2031 
Q 4056 1916 4056 1575 
L 4056 278 
Q 3697 84 3347 -6 
Q 2997 -97 2569 -97 
Q 1341 -97 703 691 
Q 225 1281 225 2053 
Q 225 2613 494 3125 
Q 813 3734 1369 4063 
Q 1834 4334 2469 4334 
Q 2700 4334 2889 4296 
Q 3078 4259 3425 4131 
Q 3600 4066 3659 4066 
Q 3719 4066 3761 4120 
Q 3803 4175 3813 4334 
L 3928 4334 
z
" transform="scale(0.015625)"/>
       <path id="TimesNewRomanPSMT-42" d="M 2956 2163 
Q 3397 2069 3616 1863 
Q 3919 1575 3919 1159 
Q 3919 844 3719 555 
Q 3519 266 3170 133 
Q 2822 0 2106 0 
L 106 0 
L 106 116 
L 266 116 
Q 531 116 647 284 
Q 719 394 719 750 
L 719 3488 
Q 719 3881 628 3984 
Q 506 4122 266 4122 
L 106 4122 
L 106 4238 
L 1938 4238 
Q 2450 4238 2759 4163 
Q 3228 4050 3475 3764 
Q 3722 3478 3722 3106 
Q 3722 2788 3528 2536 
Q 3334 2284 2956 2163 
z
M 1319 2331 
Q 1434 2309 1582 2298 
Q 1731 2288 1909 2288 
Q 2366 2288 2595 2386 
Q 2825 2484 2947 2687 
Q 3069 2891 3069 3131 
Q 3069 3503 2766 3765 
Q 2463 4028 1881 4028 
Q 1569 4028 1319 3959 
L 1319 2331 
z
M 1319 306 
Q 1681 222 2034 222 
Q 2600 222 2897 476 
Q 3194 731 3194 1106 
Q 3194 1353 3059 1581 
Q 2925 1809 2622 1940 
Q 2319 2072 1872 2072 
Q 1678 2072 1540 2065 
Q 1403 2059 1319 2044 
L 1319 306 
z
" transform="scale(0.015625)"/>
       <path id="TimesNewRomanPSMT-2f" d="M 1794 4444 
L 259 -88 
L 9 -88 
L 1544 4444 
L 1794 4444 
z
" transform="scale(0.015625)"/>
       <path id="TimesNewRomanPSMT-73" d="M 2050 2947 
L 2050 1972 
L 1947 1972 
Q 1828 2431 1642 2597 
Q 1456 2763 1169 2763 
Q 950 2763 815 2647 
Q 681 2531 681 2391 
Q 681 2216 781 2091 
Q 878 1963 1175 1819 
L 1631 1597 
Q 2266 1288 2266 781 
Q 2266 391 1970 151 
Q 1675 -88 1309 -88 
Q 1047 -88 709 6 
Q 606 38 541 38 
Q 469 38 428 -44 
L 325 -44 
L 325 978 
L 428 978 
Q 516 541 762 319 
Q 1009 97 1316 97 
Q 1531 97 1667 223 
Q 1803 350 1803 528 
Q 1803 744 1651 891 
Q 1500 1038 1047 1263 
Q 594 1488 453 1669 
Q 313 1847 313 2119 
Q 313 2472 555 2709 
Q 797 2947 1181 2947 
Q 1350 2947 1591 2875 
Q 1750 2828 1803 2828 
Q 1853 2828 1881 2850 
Q 1909 2872 1947 2947 
L 2050 2947 
z
" transform="scale(0.015625)"/>
       <path id="TimesNewRomanPSMT-29" d="M 144 4313 
L 144 4444 
Q 619 4209 934 3891 
Q 1381 3434 1625 2820 
Q 1869 2206 1869 1541 
Q 1869 572 1392 -226 
Q 916 -1025 144 -1369 
L 144 -1253 
Q 528 -1038 776 -670 
Q 1025 -303 1145 264 
Q 1266 831 1266 1447 
Q 1266 2113 1163 2663 
Q 1084 3094 967 3353 
Q 850 3613 656 3853 
Q 463 4094 144 4313 
z
" transform="scale(0.015625)"/>
      </defs>
      <use xlink:href="#SimSun-901a"/>
      <use xlink:href="#SimSun-4fe1" x="100"/>
      <use xlink:href="#SimSun-5e26" x="200"/>
      <use xlink:href="#SimSun-5bbd" x="300"/>
      <use xlink:href="#TimesNewRomanPSMT-20" x="400"/>
      <use xlink:href="#TimesNewRomanPSMT-28" x="425"/>
      <use xlink:href="#TimesNewRomanPSMT-47" x="458.300781"/>
      <use xlink:href="#TimesNewRomanPSMT-42" x="530.517578"/>
      <use xlink:href="#TimesNewRomanPSMT-2f" x="597.216797"/>
      <use xlink:href="#TimesNewRomanPSMT-73" x="625"/>
      <use xlink:href="#TimesNewRomanPSMT-29" x="663.916016"/>
     </g>
    </g>
   </g>
   <g id="matplotlib.axis_2">
    <g id="ytick_1">
     <g id="line2d_6">
      <defs>
       <path id="md14ebd58b7" d="M 0 0 
L -3.5 0 
" style="stroke: #000000; stroke-width: 0.8"/>
      </defs>
      <g>
       <use xlink:href="#md14ebd58b7" x="44.421875" y="150.596937" style="stroke: #000000; stroke-width: 0.8"/>
      </g>
     </g>
     <g id="text_7">
      <!-- 1.0 -->
      <g transform="translate(22.421875 154.763187) scale(0.12 -0.12)">
       <defs>
        <path id="TimesNewRomanPSMT-2e" d="M 800 606 
Q 947 606 1047 504 
Q 1147 403 1147 259 
Q 1147 116 1045 14 
Q 944 -88 800 -88 
Q 656 -88 554 14 
Q 453 116 453 259 
Q 453 406 554 506 
Q 656 606 800 606 
z
" transform="scale(0.015625)"/>
       </defs>
       <use xlink:href="#TimesNewRomanPSMT-31"/>
       <use xlink:href="#TimesNewRomanPSMT-2e" x="50"/>
       <use xlink:href="#TimesNewRomanPSMT-30" x="75"/>
      </g>
     </g>
    </g>
    <g id="ytick_2">
     <g id="line2d_7">
      <g>
       <use xlink:href="#md14ebd58b7" x="44.421875" y="115.496109" style="stroke: #000000; stroke-width: 0.8"/>
      </g>
     </g>
     <g id="text_8">
      <!-- 1.5 -->
      <g transform="translate(22.421875 119.662359) scale(0.12 -0.12)">
       <defs>
        <path id="TimesNewRomanPSMT-35" d="M 2778 4238 
L 2534 3706 
L 1259 3706 
L 981 3138 
Q 1809 3016 2294 2522 
Q 2709 2097 2709 1522 
Q 2709 1188 2573 903 
Q 2438 619 2231 419 
Q 2025 219 1772 97 
Q 1413 -75 1034 -75 
Q 653 -75 479 54 
Q 306 184 306 341 
Q 306 428 378 495 
Q 450 563 559 563 
Q 641 563 702 538 
Q 763 513 909 409 
Q 1144 247 1384 247 
Q 1750 247 2026 523 
Q 2303 800 2303 1197 
Q 2303 1581 2056 1914 
Q 1809 2247 1375 2428 
Q 1034 2569 447 2591 
L 1259 4238 
L 2778 4238 
z
" transform="scale(0.015625)"/>
       </defs>
       <use xlink:href="#TimesNewRomanPSMT-31"/>
       <use xlink:href="#TimesNewRomanPSMT-2e" x="50"/>
       <use xlink:href="#TimesNewRomanPSMT-35" x="75"/>
      </g>
     </g>
    </g>
    <g id="ytick_3">
     <g id="line2d_8">
      <g>
       <use xlink:href="#md14ebd58b7" x="44.421875" y="80.395281" style="stroke: #000000; stroke-width: 0.8"/>
      </g>
     </g>
     <g id="text_9">
      <!-- 2.0 -->
      <g transform="translate(22.421875 84.561531) scale(0.12 -0.12)">
       <use xlink:href="#TimesNewRomanPSMT-32"/>
       <use xlink:href="#TimesNewRomanPSMT-2e" x="50"/>
       <use xlink:href="#TimesNewRomanPSMT-30" x="75"/>
      </g>
     </g>
    </g>
    <g id="ytick_4">
     <g id="line2d_9">
      <g>
       <use xlink:href="#md14ebd58b7" x="44.421875" y="45.294453" style="stroke: #000000; stroke-width: 0.8"/>
      </g>
     </g>
     <g id="text_10">
      <!-- 2.5 -->
      <g transform="translate(22.421875 49.460703) scale(0.12 -0.12)">
       <use xlink:href="#TimesNewRomanPSMT-32"/>
       <use xlink:href="#TimesNewRomanPSMT-2e" x="50"/>
       <use xlink:href="#TimesNewRomanPSMT-35" x="75"/>
      </g>
     </g>
    </g>
    <g id="ytick_5">
     <g id="line2d_10">
      <g>
       <use xlink:href="#md14ebd58b7" x="44.421875" y="10.193624" style="stroke: #000000; stroke-width: 0.8"/>
      </g>
     </g>
     <g id="text_11">
      <!-- 3.0 -->
      <g transform="translate(22.421875 14.359874) scale(0.12 -0.12)">
       <defs>
        <path id="TimesNewRomanPSMT-33" d="M 325 3431 
Q 506 3859 782 4092 
Q 1059 4325 1472 4325 
Q 1981 4325 2253 3994 
Q 2459 3747 2459 3466 
Q 2459 3003 1878 2509 
Q 2269 2356 2469 2072 
Q 2669 1788 2669 1403 
Q 2669 853 2319 450 
Q 1863 -75 997 -75 
Q 569 -75 414 31 
Q 259 138 259 259 
Q 259 350 332 419 
Q 406 488 509 488 
Q 588 488 669 463 
Q 722 447 909 348 
Q 1097 250 1169 231 
Q 1284 197 1416 197 
Q 1734 197 1970 444 
Q 2206 691 2206 1028 
Q 2206 1275 2097 1509 
Q 2016 1684 1919 1775 
Q 1784 1900 1550 2001 
Q 1316 2103 1072 2103 
L 972 2103 
L 972 2197 
Q 1219 2228 1467 2375 
Q 1716 2522 1828 2728 
Q 1941 2934 1941 3181 
Q 1941 3503 1739 3701 
Q 1538 3900 1238 3900 
Q 753 3900 428 3381 
L 325 3431 
z
" transform="scale(0.015625)"/>
       </defs>
       <use xlink:href="#TimesNewRomanPSMT-33"/>
       <use xlink:href="#TimesNewRomanPSMT-2e" x="50"/>
       <use xlink:href="#TimesNewRomanPSMT-30" x="75"/>
      </g>
     </g>
    </g>
    <g id="text_12">
     <!-- 训练批次时长 (s) -->
     <g transform="translate(15.855 135.148685) rotate(-90) scale(0.12 -0.12)">
      <defs>
       <path id="SimSun-8bad" d="M 3950 4750 
Q 3975 3850 3975 2537 
Q 3975 1225 3950 375 
L 4325 550 
Q 4300 1000 4300 4375 
L 4500 4525 
L 3950 4750 
z
M 5150 5075 
Q 5175 4450 5175 4175 
L 5175 550 
Q 5175 -25 5150 -500 
L 5525 -350 
Q 5500 275 5500 775 
L 5500 4675 
L 5675 4850 
L 5150 5075 
z
M 900 4925 
Q 1300 4525 1400 4212 
Q 1500 3900 1637 3962 
Q 1775 4025 1825 4200 
Q 1875 4375 1712 4575 
Q 1550 4775 950 5000 
L 900 4925 
z
M 1625 750 
L 1625 2825 
L 1875 2975 
L 1500 3350 
L 1225 3050 
L 325 3050 
L 525 2850 
Q 750 2925 1025 2925 
L 1300 2925 
L 1300 775 
Q 1300 575 1200 425 
L 1525 25 
Q 1850 625 2450 1525 
L 2400 1575 
L 1625 750 
z
M 2725 4975 
Q 2775 3650 2775 2650 
Q 2775 1650 2525 925 
Q 2275 200 1450 -525 
L 1525 -600 
Q 2475 75 2775 775 
Q 3075 1475 3100 2312 
Q 3125 3150 3125 4525 
L 3325 4725 
L 2725 4975 
z
" transform="scale(0.015625)"/>
       <path id="SimSun-7ec3" d="M 700 3150 
Q 1225 3950 1700 4725 
L 1975 4875 
L 1425 5175 
Q 1225 4500 887 3850 
Q 550 3200 325 3200 
L 650 2725 
Q 825 2875 1100 2950 
Q 1375 3025 1675 3075 
Q 1050 2225 800 1962 
Q 550 1700 350 1625 
L 650 1125 
Q 775 1375 2375 1775 
L 2350 1875 
Q 1425 1700 775 1625 
Q 1575 2475 2350 3425 
L 2600 3550 
L 2150 3900 
Q 2000 3575 1775 3225 
L 700 3150 
z
M 275 375 
L 575 -75 
L 750 100 
Q 1550 525 2350 850 
L 2325 950 
Q 1250 625 275 375 
z
M 2700 2150 
L 2450 2000 
L 2750 1675 
L 2975 1875 
L 4300 1875 
L 4300 175 
Q 4300 -100 4100 -100 
Q 3900 -100 3300 -50 
L 3300 -150 
Q 4000 -300 4050 -675 
Q 4625 -550 4625 50 
L 4625 1875 
L 6050 1875 
L 5600 2300 
L 5300 2000 
L 4625 2000 
L 4625 2900 
L 4825 3050 
L 4425 3350 
L 4250 3125 
L 3475 3125 
L 3850 4125 
L 5925 4125 
L 5475 4575 
L 5150 4250 
L 3900 4250 
Q 4050 4625 4125 4800 
L 4350 4925 
L 3825 5225 
Q 3800 4975 3575 4250 
L 2350 4250 
L 2550 4050 
Q 2775 4125 3050 4125 
L 3525 4125 
L 3175 3125 
L 2500 3125 
L 2700 2925 
L 2925 3000 
L 3100 3000 
Q 2900 2450 2700 2150 
z
M 3425 975 
L 3675 1050 
L 3175 1425 
Q 2925 825 2587 387 
Q 2250 -50 1825 -450 
L 1900 -525 
Q 2650 0 3425 975 
z
M 4900 1350 
L 4850 1275 
Q 5475 625 5675 137 
Q 5875 -350 6012 -25 
Q 6150 300 5975 537 
Q 5800 775 4900 1350 
z
M 3425 3000 
L 4300 3000 
L 4300 2000 
L 2950 2000 
Q 3225 2525 3425 3000 
z
" transform="scale(0.015625)"/>
       <path id="SimSun-6279" d="M 2625 50 
L 2950 -350 
Q 3250 125 4175 875 
L 4125 975 
L 3075 300 
L 3075 2975 
L 4125 2975 
L 3725 3400 
L 3425 3100 
L 3075 3100 
L 3075 4525 
L 3300 4725 
L 2725 5000 
Q 2750 4525 2750 3975 
L 2750 575 
Q 2775 200 2625 50 
z
M 4275 250 
Q 4250 -325 4825 -275 
L 5600 -275 
Q 5950 -300 6175 50 
Q 5950 125 5912 462 
Q 5875 800 5875 1175 
L 5750 1175 
Q 5750 750 5700 362 
Q 5650 -25 5425 0 
L 4875 0 
Q 4625 25 4625 300 
L 4625 2400 
Q 5275 2800 5550 3025 
Q 5825 3250 6075 3325 
L 5650 3750 
Q 5300 3125 4625 2550 
L 4625 4500 
L 4875 4700 
L 4250 4975 
Q 4275 4525 4275 4075 
L 4275 250 
z
M 225 2000 
L 525 1525 
Q 625 1725 1325 2100 
L 1325 300 
Q 1325 50 1137 37 
Q 950 25 425 100 
L 425 -25 
Q 1075 -225 1100 -550 
Q 1700 -350 1675 275 
L 1675 2225 
L 2550 2725 
L 2525 2825 
L 1675 2475 
L 1675 3650 
L 2625 3650 
L 2275 4050 
L 2000 3775 
L 1675 3775 
L 1675 4750 
L 1925 4950 
L 1300 5225 
Q 1325 4600 1325 3775 
L 275 3775 
L 475 3575 
L 775 3650 
L 1325 3650 
L 1325 2375 
Q 500 2075 225 2000 
z
" transform="scale(0.015625)"/>
       <path id="SimSun-6b21" d="M 4875 2700 
L 4950 2650 
Q 5375 3175 5550 3325 
Q 5725 3475 5975 3525 
L 5525 4000 
L 5250 3725 
L 3275 3725 
Q 3550 4350 3675 4562 
Q 3800 4775 3900 4900 
L 3350 5200 
Q 3275 4650 2925 3725 
Q 2575 2800 2000 2075 
L 2075 2000 
Q 2575 2500 2800 2862 
Q 3025 3225 3225 3600 
L 5275 3600 
L 4875 2700 
z
M 4050 2875 
Q 4125 1650 4537 800 
Q 4950 -50 5575 -525 
Q 5750 -250 6125 -275 
L 6150 -200 
Q 5325 100 4812 887 
Q 4300 1675 4125 2950 
L 4275 3075 
L 3700 3375 
Q 3675 1800 3175 887 
Q 2675 -25 1400 -600 
L 1450 -675 
Q 2450 -375 3175 412 
Q 3900 1200 4050 2875 
z
M 750 4925 
L 700 4850 
Q 1150 4375 1262 3912 
Q 1375 3450 1600 3762 
Q 1825 4075 1550 4362 
Q 1275 4650 750 4925 
z
M 425 1625 
L 425 1525 
Q 950 1375 975 1162 
Q 1000 950 925 550 
Q 850 150 912 -12 
Q 975 -175 1212 -200 
Q 1450 -225 1375 312 
Q 1300 850 1300 1162 
Q 1300 1475 1350 1575 
Q 1400 1675 2375 4225 
L 2275 4275 
Q 1225 1800 1075 1675 
Q 925 1550 425 1625 
z
" transform="scale(0.015625)"/>
       <path id="SimSun-65f6" d="M 4600 3575 
L 2475 3575 
L 2675 3375 
Q 2900 3450 3175 3450 
L 4600 3450 
L 4600 225 
Q 4600 -50 4400 -37 
Q 4200 -25 3575 50 
L 3550 -50 
Q 4275 -200 4450 -600 
Q 4775 -475 4862 -325 
Q 4950 -175 4950 100 
L 4950 3450 
L 6125 3450 
L 5650 3900 
L 5325 3575 
L 4950 3575 
L 4950 4675 
L 5200 4850 
L 4575 5175 
Q 4600 4525 4600 3575 
z
M 3025 2800 
L 2950 2725 
Q 3350 2150 3475 1750 
Q 3600 1350 3787 1625 
Q 3975 1900 3812 2150 
Q 3650 2400 3025 2800 
z
M 1025 4150 
L 2050 4150 
L 2050 2625 
L 1025 2625 
L 1025 4150 
z
M 1025 2500 
L 2050 2500 
L 2050 875 
L 1025 875 
L 1025 2500 
z
M 2375 1975 
L 2375 4000 
L 2600 4150 
L 2200 4525 
L 2000 4275 
L 1100 4275 
L 675 4525 
Q 700 4000 700 2400 
Q 700 800 675 0 
L 1025 225 
L 1025 750 
L 2050 750 
L 2050 150 
L 2400 375 
Q 2375 775 2375 1975 
z
" transform="scale(0.015625)"/>
       <path id="SimSun-957f" d="M 1675 2575 
L 275 2575 
L 475 2375 
Q 700 2450 975 2450 
L 1675 2450 
L 1675 225 
Q 1675 25 1600 -125 
L 1875 -525 
Q 2350 -100 3625 600 
L 3575 675 
L 2025 50 
L 2025 2450 
L 2950 2450 
Q 3325 1400 4025 787 
Q 4725 175 5575 -200 
Q 5750 125 6100 125 
L 6100 225 
Q 5125 375 4325 950 
Q 3525 1525 3100 2450 
L 5925 2450 
L 5475 2900 
L 5150 2575 
L 2025 2575 
L 2025 4675 
L 2250 4875 
L 1650 5150 
Q 1675 3725 1675 2575 
z
M 4475 5075 
Q 4175 4600 3612 4050 
Q 3050 3500 2250 2950 
L 2300 2850 
Q 3150 3325 3900 3925 
Q 4650 4525 4950 4625 
L 4475 5075 
z
" transform="scale(0.015625)"/>
      </defs>
      <use xlink:href="#SimSun-8bad"/>
      <use xlink:href="#SimSun-7ec3" x="100"/>
      <use xlink:href="#SimSun-6279" x="200"/>
      <use xlink:href="#SimSun-6b21" x="300"/>
      <use xlink:href="#SimSun-65f6" x="400"/>
      <use xlink:href="#SimSun-957f" x="500"/>
      <use xlink:href="#TimesNewRomanPSMT-20" x="600"/>
      <use xlink:href="#TimesNewRomanPSMT-28" x="625"/>
      <use xlink:href="#TimesNewRomanPSMT-73" x="658.300781"/>
      <use xlink:href="#TimesNewRomanPSMT-29" x="697.216797"/>
     </g>
    </g>
   </g>
   <g id="line2d_11">
    <path d="M 61.766335 14.498086 
L 65.417801 45.449728 
L 69.069266 67.558043 
L 72.720731 84.139279 
L 76.372196 97.035797 
L 80.023662 107.35301 
L 83.675127 115.794367 
L 87.326592 122.828831 
L 90.978058 128.78107 
L 94.629523 133.882989 
L 98.280988 138.304652 
L 101.932454 142.173607 
L 105.583919 145.587391 
L 109.235384 148.621865 
L 112.88685 151.336922 
L 116.538315 153.780472 
L 120.18978 155.991304 
L 123.841246 158.001151 
L 127.492711 159.836228 
L 131.144176 161.518383 
L 134.795641 163.065965 
L 138.447107 164.471439 
L 142.098572 165.726178 
L 145.750037 166.154457 
L 149.401503 166.286942 
L 153.052968 166.405596 
L 156.704433 166.516595 
L 160.355899 166.620657 
L 164.007364 166.718411 
L 167.658829 166.810416 
L 171.310295 166.897163 
L 174.96176 166.979091 
L 178.613225 167.05659 
L 182.26469 167.13001 
L 185.916156 167.199665 
L 189.567621 167.265838 
L 193.219086 167.328782 
L 196.870552 167.38873 
L 200.522017 167.445888 
L 204.173482 167.500449 
L 207.824948 167.552585 
L 211.476413 167.602454 
L 215.127878 167.650201 
L 218.779344 167.695959 
L 222.430809 167.739849 
L 226.082274 167.781983 
L 229.73374 167.822465 
L 233.385205 167.86139 
L 237.03667 167.898846 
L 240.688135 167.934915 
L 244.339601 167.969672 
L 247.991066 168.003188 
L 251.642531 168.035528 
L 255.293997 168.066753 
L 258.945462 168.096919 
L 262.596927 168.12608 
L 266.248393 168.137409 
L 269.899858 168.137409 
L 273.551323 168.137409 
L 277.202789 168.137409 
L 280.854254 168.137409 
L 284.505719 168.137409 
L 288.157185 168.137409 
L 291.80865 168.137409 
L 295.460115 168.137409 
L 299.11158 168.137409 
L 302.763046 168.137409 
L 306.414511 168.137409 
L 310.065976 168.137409 
L 313.717442 168.137409 
L 317.368907 168.137409 
L 321.020372 168.137409 
L 324.671838 168.137409 
L 328.323303 168.137409 
L 331.974768 168.137409 
L 335.626234 168.137409 
L 339.277699 168.137409 
L 342.929164 168.137409 
L 346.580629 168.137409 
L 350.232095 168.137409 
L 353.88356 168.137409 
L 357.535025 168.137409 
L 361.186491 168.137409 
L 364.837956 168.137409 
L 368.489421 168.137409 
L 372.140887 168.137409 
L 375.792352 168.137409 
L 379.443817 168.137409 
L 383.095283 168.137409 
L 386.746748 168.137409 
L 390.398213 168.137409 
L 394.049679 168.137409 
L 397.701144 168.137409 
L 401.352609 168.137409 
L 405.004074 168.137409 
L 408.65554 168.137409 
" clip-path="url(#pbea230a336)" style="fill: none; stroke: #2878b5; stroke-width: 1.5; stroke-linecap: square"/>
   </g>
   <g id="patch_3">
    <path d="M 44.421875 175.819375 
L 44.421875 6.81612 
" style="fill: none; stroke: #000000; stroke-width: 0.8; stroke-linejoin: miter; stroke-linecap: square"/>
   </g>
   <g id="patch_4">
    <path d="M 426 175.819375 
L 426 6.81612 
" style="fill: none; stroke: #000000; stroke-width: 0.8; stroke-linejoin: miter; stroke-linecap: square"/>
   </g>
   <g id="patch_5">
    <path d="M 44.421875 175.819375 
L 426 175.819375 
" style="fill: none; stroke: #000000; stroke-width: 0.8; stroke-linejoin: miter; stroke-linecap: square"/>
   </g>
   <g id="patch_6">
    <path d="M 44.421875 6.81612 
L 426 6.81612 
" style="fill: none; stroke: #000000; stroke-width: 0.8; stroke-linejoin: miter; stroke-linecap: square"/>
   </g>
   <g id="legend_1">
    <g id="patch_7">
     <path d="M 324.96 33.382995 
L 417.6 33.382995 
Q 420 33.382995 420 30.982995 
L 420 15.21612 
Q 420 12.81612 417.6 12.81612 
L 324.96 12.81612 
Q 322.56 12.81612 322.56 15.21612 
L 322.56 30.982995 
Q 322.56 33.382995 324.96 33.382995 
z
" style="fill: #ffffff; opacity: 0.8; stroke: #cccccc; stroke-linejoin: miter"/>
    </g>
    <g id="line2d_12">
     <path d="M 327.36 21.81612 
L 339.36 21.81612 
L 351.36 21.81612 
" style="fill: none; stroke: #2878b5; stroke-width: 1.5; stroke-linecap: square"/>
    </g>
    <g id="text_13">
     <!-- OPT-350M -->
     <g transform="translate(360.96 26.01612) scale(0.12 -0.12)">
      <defs>
       <path id="TimesNewRomanPSMT-4f" d="M 2341 4334 
Q 3166 4334 3770 3707 
Q 4375 3081 4375 2144 
Q 4375 1178 3765 540 
Q 3156 -97 2291 -97 
Q 1416 -97 820 525 
Q 225 1147 225 2134 
Q 225 3144 913 3781 
Q 1509 4334 2341 4334 
z
M 2281 4106 
Q 1713 4106 1369 3684 
Q 941 3159 941 2147 
Q 941 1109 1384 550 
Q 1725 125 2284 125 
Q 2881 125 3270 590 
Q 3659 1056 3659 2059 
Q 3659 3147 3231 3681 
Q 2888 4106 2281 4106 
z
" transform="scale(0.015625)"/>
       <path id="TimesNewRomanPSMT-50" d="M 1313 1984 
L 1313 750 
Q 1313 350 1400 253 
Q 1519 116 1759 116 
L 1922 116 
L 1922 0 
L 106 0 
L 106 116 
L 266 116 
Q 534 116 650 291 
Q 713 388 713 750 
L 713 3488 
Q 713 3888 628 3984 
Q 506 4122 266 4122 
L 106 4122 
L 106 4238 
L 1659 4238 
Q 2228 4238 2556 4120 
Q 2884 4003 3109 3725 
Q 3334 3447 3334 3066 
Q 3334 2547 2992 2222 
Q 2650 1897 2025 1897 
Q 1872 1897 1694 1919 
Q 1516 1941 1313 1984 
z
M 1313 2163 
Q 1478 2131 1606 2115 
Q 1734 2100 1825 2100 
Q 2150 2100 2386 2351 
Q 2622 2603 2622 3003 
Q 2622 3278 2509 3514 
Q 2397 3750 2190 3867 
Q 1984 3984 1722 3984 
Q 1563 3984 1313 3925 
L 1313 2163 
z
" transform="scale(0.015625)"/>
       <path id="TimesNewRomanPSMT-54" d="M 3703 4238 
L 3750 3244 
L 3631 3244 
Q 3597 3506 3538 3619 
Q 3441 3800 3280 3886 
Q 3119 3972 2856 3972 
L 2259 3972 
L 2259 734 
Q 2259 344 2344 247 
Q 2463 116 2709 116 
L 2856 116 
L 2856 0 
L 1059 0 
L 1059 116 
L 1209 116 
Q 1478 116 1591 278 
Q 1659 378 1659 734 
L 1659 3972 
L 1150 3972 
Q 853 3972 728 3928 
Q 566 3869 450 3700 
Q 334 3531 313 3244 
L 194 3244 
L 244 4238 
L 3703 4238 
z
" transform="scale(0.015625)"/>
       <path id="TimesNewRomanPSMT-2d" d="M 259 1672 
L 1875 1672 
L 1875 1200 
L 259 1200 
L 259 1672 
z
" transform="scale(0.015625)"/>
       <path id="TimesNewRomanPSMT-4d" d="M 2619 0 
L 981 3566 
L 981 734 
Q 981 344 1066 247 
Q 1181 116 1431 116 
L 1581 116 
L 1581 0 
L 106 0 
L 106 116 
L 256 116 
Q 525 116 638 278 
Q 706 378 706 734 
L 706 3503 
Q 706 3784 644 3909 
Q 600 4000 483 4061 
Q 366 4122 106 4122 
L 106 4238 
L 1306 4238 
L 2844 922 
L 4356 4238 
L 5556 4238 
L 5556 4122 
L 5409 4122 
Q 5138 4122 5025 3959 
Q 4956 3859 4956 3503 
L 4956 734 
Q 4956 344 5044 247 
Q 5159 116 5409 116 
L 5556 116 
L 5556 0 
L 3756 0 
L 3756 116 
L 3906 116 
Q 4178 116 4288 278 
Q 4356 378 4356 734 
L 4356 3566 
L 2722 0 
L 2619 0 
z
" transform="scale(0.015625)"/>
      </defs>
      <use xlink:href="#TimesNewRomanPSMT-4f"/>
      <use xlink:href="#TimesNewRomanPSMT-50" x="72.216797"/>
      <use xlink:href="#TimesNewRomanPSMT-54" x="127.832031"/>
      <use xlink:href="#TimesNewRomanPSMT-2d" x="179.791016"/>
      <use xlink:href="#TimesNewRomanPSMT-33" x="213.091797"/>
      <use xlink:href="#TimesNewRomanPSMT-35" x="263.091797"/>
      <use xlink:href="#TimesNewRomanPSMT-30" x="313.091797"/>
      <use xlink:href="#TimesNewRomanPSMT-4d" x="363.091797"/>
     </g>
    </g>
   </g>
  </g>
 </g>
 <defs>
  <clipPath id="pbea230a336">
   <rect x="44.421875" y="6.81612" width="381.578125" height="169.003255"/>
  </clipPath>
 </defs>
</svg>
