<?xml version="1.0" encoding="utf-8" standalone="no"?>
<!DOCTYPE svg PUBLIC "-//W3C//DTD SVG 1.1//EN"
  "http://www.w3.org/Graphics/SVG/1.1/DTD/svg11.dtd">
<svg xmlns:xlink="http://www.w3.org/1999/xlink" width="432pt" height="216pt" viewBox="0 0 432 216" xmlns="http://www.w3.org/2000/svg" version="1.1">
 <metadata>
  <rdf:RDF xmlns:dc="http://purl.org/dc/elements/1.1/" xmlns:cc="http://creativecommons.org/ns#" xmlns:rdf="http://www.w3.org/1999/02/22-rdf-syntax-ns#">
   <cc:Work>
    <dc:type rdf:resource="http://purl.org/dc/dcmitype/StillImage"/>
    <dc:date>2025-02-24T21:36:04.795753</dc:date>
    <dc:format>image/svg+xml</dc:format>
    <dc:creator>
     <cc:Agent>
      <dc:title>Matplotlib v3.9.1, https://matplotlib.org/</dc:title>
     </cc:Agent>
    </dc:creator>
   </cc:Work>
  </rdf:RDF>
 </metadata>
 <defs>
  <style type="text/css">*{stroke-linejoin: round; stroke-linecap: butt}</style>
 </defs>
 <g id="figure_1">
  <g id="patch_1">
   <path d="M 0 216 
L 432 216 
L 432 0 
L 0 0 
z
" style="fill: #ffffff"/>
  </g>
  <g id="axes_1">
   <g id="patch_2">
    <path d="M 44.455625 175.819375 
L 426 175.819375 
L 426 6.81612 
L 44.455625 6.81612 
z
" style="fill: #ffffff"/>
   </g>
   <g id="matplotlib.axis_1">
    <g id="xtick_1">
     <g id="line2d_1">
      <defs>
       <path id="m85ce644fa2" d="M 0 0 
L 0 3.5 
" style="stroke: #000000; stroke-width: 0.8"/>
      </defs>
      <g>
       <use xlink:href="#m85ce644fa2" x="116.565686" y="175.819375" style="stroke: #000000; stroke-width: 0.8"/>
      </g>
     </g>
     <g id="text_1">
      <!-- 2 -->
      <g transform="translate(113.565686 191.151875) scale(0.12 -0.12)">
       <defs>
        <path id="TimesNewRomanPSMT-32" d="M 2934 816 
L 2638 0 
L 138 0 
L 138 116 
Q 1241 1122 1691 1759 
Q 2141 2397 2141 2925 
Q 2141 3328 1894 3587 
Q 1647 3847 1303 3847 
Q 991 3847 742 3664 
Q 494 3481 375 3128 
L 259 3128 
Q 338 3706 661 4015 
Q 984 4325 1469 4325 
Q 1984 4325 2329 3994 
Q 2675 3663 2675 3213 
Q 2675 2891 2525 2569 
Q 2294 2063 1775 1497 
Q 997 647 803 472 
L 1909 472 
Q 2247 472 2383 497 
Q 2519 522 2628 598 
Q 2738 675 2819 816 
L 2934 816 
z
" transform="scale(0.015625)"/>
       </defs>
       <use xlink:href="#TimesNewRomanPSMT-32"/>
      </g>
     </g>
    </g>
    <g id="xtick_2">
     <g id="line2d_2">
      <g>
       <use xlink:href="#m85ce644fa2" x="189.588533" y="175.819375" style="stroke: #000000; stroke-width: 0.8"/>
      </g>
     </g>
     <g id="text_2">
      <!-- 4 -->
      <g transform="translate(186.588533 191.151875) scale(0.12 -0.12)">
       <defs>
        <path id="TimesNewRomanPSMT-34" d="M 2978 1563 
L 2978 1119 
L 2409 1119 
L 2409 0 
L 1894 0 
L 1894 1119 
L 100 1119 
L 100 1519 
L 2066 4325 
L 2409 4325 
L 2409 1563 
L 2978 1563 
z
M 1894 1563 
L 1894 3666 
L 406 1563 
L 1894 1563 
z
" transform="scale(0.015625)"/>
       </defs>
       <use xlink:href="#TimesNewRomanPSMT-34"/>
      </g>
     </g>
    </g>
    <g id="xtick_3">
     <g id="line2d_3">
      <g>
       <use xlink:href="#m85ce644fa2" x="262.61138" y="175.819375" style="stroke: #000000; stroke-width: 0.8"/>
      </g>
     </g>
     <g id="text_3">
      <!-- 6 -->
      <g transform="translate(259.61138 191.151875) scale(0.12 -0.12)">
       <defs>
        <path id="TimesNewRomanPSMT-36" d="M 2869 4325 
L 2869 4209 
Q 2456 4169 2195 4045 
Q 1934 3922 1679 3669 
Q 1425 3416 1258 3105 
Q 1091 2794 978 2366 
Q 1428 2675 1881 2675 
Q 2316 2675 2634 2325 
Q 2953 1975 2953 1425 
Q 2953 894 2631 456 
Q 2244 -75 1606 -75 
Q 1172 -75 869 213 
Q 275 772 275 1663 
Q 275 2231 503 2743 
Q 731 3256 1154 3653 
Q 1578 4050 1965 4187 
Q 2353 4325 2688 4325 
L 2869 4325 
z
M 925 2138 
Q 869 1716 869 1456 
Q 869 1156 980 804 
Q 1091 453 1309 247 
Q 1469 100 1697 100 
Q 1969 100 2183 356 
Q 2397 613 2397 1088 
Q 2397 1622 2184 2012 
Q 1972 2403 1581 2403 
Q 1463 2403 1327 2353 
Q 1191 2303 925 2138 
z
" transform="scale(0.015625)"/>
       </defs>
       <use xlink:href="#TimesNewRomanPSMT-36"/>
      </g>
     </g>
    </g>
    <g id="xtick_4">
     <g id="line2d_4">
      <g>
       <use xlink:href="#m85ce644fa2" x="335.634227" y="175.819375" style="stroke: #000000; stroke-width: 0.8"/>
      </g>
     </g>
     <g id="text_4">
      <!-- 8 -->
      <g transform="translate(332.634227 191.151875) scale(0.12 -0.12)">
       <defs>
        <path id="TimesNewRomanPSMT-38" d="M 1228 2134 
Q 725 2547 579 2797 
Q 434 3047 434 3316 
Q 434 3728 753 4026 
Q 1072 4325 1600 4325 
Q 2113 4325 2425 4047 
Q 2738 3769 2738 3413 
Q 2738 3175 2569 2928 
Q 2400 2681 1866 2347 
Q 2416 1922 2594 1678 
Q 2831 1359 2831 1006 
Q 2831 559 2490 242 
Q 2150 -75 1597 -75 
Q 994 -75 656 303 
Q 388 606 388 966 
Q 388 1247 577 1523 
Q 766 1800 1228 2134 
z
M 1719 2469 
Q 2094 2806 2194 3001 
Q 2294 3197 2294 3444 
Q 2294 3772 2109 3958 
Q 1925 4144 1606 4144 
Q 1288 4144 1088 3959 
Q 888 3775 888 3528 
Q 888 3366 970 3203 
Q 1053 3041 1206 2894 
L 1719 2469 
z
M 1375 2016 
Q 1116 1797 991 1539 
Q 866 1281 866 981 
Q 866 578 1086 336 
Q 1306 94 1647 94 
Q 1984 94 2187 284 
Q 2391 475 2391 747 
Q 2391 972 2272 1150 
Q 2050 1481 1375 2016 
z
" transform="scale(0.015625)"/>
       </defs>
       <use xlink:href="#TimesNewRomanPSMT-38"/>
      </g>
     </g>
    </g>
    <g id="xtick_5">
     <g id="line2d_5">
      <g>
       <use xlink:href="#m85ce644fa2" x="408.657074" y="175.819375" style="stroke: #000000; stroke-width: 0.8"/>
      </g>
     </g>
     <g id="text_5">
      <!-- 10 -->
      <g transform="translate(402.657074 191.151875) scale(0.12 -0.12)">
       <defs>
        <path id="TimesNewRomanPSMT-31" d="M 750 3822 
L 1781 4325 
L 1884 4325 
L 1884 747 
Q 1884 391 1914 303 
Q 1944 216 2037 169 
Q 2131 122 2419 116 
L 2419 0 
L 825 0 
L 825 116 
Q 1125 122 1212 167 
Q 1300 213 1334 289 
Q 1369 366 1369 747 
L 1369 3034 
Q 1369 3497 1338 3628 
Q 1316 3728 1258 3775 
Q 1200 3822 1119 3822 
Q 1003 3822 797 3725 
L 750 3822 
z
" transform="scale(0.015625)"/>
        <path id="TimesNewRomanPSMT-30" d="M 231 2094 
Q 231 2819 450 3342 
Q 669 3866 1031 4122 
Q 1313 4325 1613 4325 
Q 2100 4325 2488 3828 
Q 2972 3213 2972 2159 
Q 2972 1422 2759 906 
Q 2547 391 2217 158 
Q 1888 -75 1581 -75 
Q 975 -75 572 641 
Q 231 1244 231 2094 
z
M 844 2016 
Q 844 1141 1059 588 
Q 1238 122 1591 122 
Q 1759 122 1940 273 
Q 2122 425 2216 781 
Q 2359 1319 2359 2297 
Q 2359 3022 2209 3506 
Q 2097 3866 1919 4016 
Q 1791 4119 1609 4119 
Q 1397 4119 1231 3928 
Q 1006 3669 925 3112 
Q 844 2556 844 2016 
z
" transform="scale(0.015625)"/>
       </defs>
       <use xlink:href="#TimesNewRomanPSMT-31"/>
       <use xlink:href="#TimesNewRomanPSMT-30" x="50"/>
      </g>
     </g>
    </g>
    <g id="text_6">
     <!-- 通信带宽 (GB/s) -->
     <g transform="translate(193.394688 207.57) scale(0.12 -0.12)">
      <defs>
       <path id="SimSong-Regular-901a" d="M 2163 4896 
L 2278 4614 
C 2432 4646 2656 4666 2963 4666 
L 4819 4666 
C 4614 4461 4371 4262 4083 4077 
C 4083 4077 4083 4077 4083 4077 
C 3821 4211 3475 4320 3027 4403 
L 2970 4314 
C 3334 4179 3648 3981 3942 3712 
L 3987 3667 
L 2720 3667 
C 2586 3744 2451 3802 2310 3853 
C 2323 3699 2336 3546 2336 3392 
L 2336 774 
C 2336 653 2323 538 2310 429 
C 2310 358 2362 326 2438 326 
C 2490 326 2554 333 2630 358 
C 2675 371 2707 397 2707 429 
L 2707 1594 
L 3712 1594 
L 3712 1005 
C 3712 774 3699 595 3686 480 
C 3686 410 3738 378 3814 378 
C 3866 378 3936 390 4032 416 
C 4070 442 4102 467 4102 506 
C 4090 698 4083 864 4083 1005 
L 4083 1594 
L 5184 1594 
L 5184 851 
C 5184 768 5152 730 5075 730 
C 4909 730 4691 762 4410 832 
L 4384 736 
C 4755 634 4928 531 4941 416 
C 4941 307 4998 256 5075 256 
C 5152 256 5242 282 5344 333 
C 5478 403 5555 506 5555 640 
L 5555 3379 
C 5555 3418 5581 3450 5645 3482 
L 5645 3482 
C 5696 3501 5734 3539 5734 3590 
C 5734 3622 5670 3686 5562 3782 
C 5459 3859 5389 3904 5363 3904 
C 5331 3904 5280 3866 5216 3802 
L 5101 3667 
L 4314 3667 
C 4339 3693 4358 3731 4358 3776 
C 4352 3840 4307 3910 4230 3981 
C 4602 4122 4947 4301 5274 4512 
L 5478 4518 
C 5574 4518 5632 4550 5632 4608 
C 5632 4646 5555 4730 5427 4870 
C 5280 5011 5178 5082 5126 5082 
C 5107 5082 5043 5043 4954 4966 
C 4915 4928 4864 4883 4806 4838 
L 2963 4838 
C 2720 4838 2458 4858 2163 4896 
L 2163 4896 
z
M 858 5030 
L 794 4966 
C 1024 4736 1184 4454 1299 4115 
C 1344 3955 1434 3878 1549 3878 
C 1600 3878 1645 3910 1690 3974 
C 1728 4038 1754 4102 1754 4173 
C 1754 4301 1677 4435 1536 4576 
C 1402 4723 1178 4877 858 5030 
L 858 5030 
z
M 2707 2739 
L 2707 3494 
L 3712 3494 
L 3712 2739 
L 2707 2739 
z
M 4077 3494 
L 5184 3494 
L 5184 2739 
L 4083 2739 
L 4083 3494 
L 4077 3494 
z
M 288 2701 
L 403 2419 
C 595 2451 870 2464 1222 2464 
L 1222 486 
C 1024 314 730 115 339 -102 
C 416 -262 499 -403 576 -518 
C 602 -570 640 -595 666 -595 
C 710 -595 742 -525 742 -390 
C 1005 -134 1242 134 1446 429 
C 1459 467 1472 493 1478 493 
C 1728 32 2125 -237 2650 -314 
C 3072 -358 3526 -384 4019 -397 
L 5862 -397 
C 5914 -397 5952 -358 5965 -282 
C 6003 -115 6074 -26 6182 0 
L 6163 70 
C 5472 26 4851 6 4301 6 
C 3328 6 2694 26 2400 77 
C 2067 141 1805 314 1619 589 
L 1619 2374 
C 1619 2400 1645 2438 1709 2490 
C 1766 2541 1805 2579 1805 2618 
C 1805 2656 1741 2720 1632 2816 
C 1517 2906 1440 2957 1389 2957 
C 1350 2957 1286 2912 1210 2822 
L 1069 2643 
C 794 2643 531 2662 288 2701 
L 288 2701 
z
M 2707 1766 
L 2707 2566 
L 3712 2566 
L 3712 1766 
L 2707 1766 
z
M 4077 2566 
L 5184 2566 
L 5184 1766 
L 4083 1766 
L 4083 2566 
L 4077 2566 
z
" transform="scale(0.015625)"/>
       <path id="SimSong-Regular-4fe1" d="M 1664 5229 
C 1485 4499 1280 3898 1050 3424 
C 768 2829 512 2368 269 2042 
L 333 1939 
C 653 2298 928 2650 1158 3014 
L 1146 3014 
L 1146 230 
C 1146 -13 1133 -250 1120 -493 
C 1120 -557 1165 -595 1242 -595 
C 1293 -595 1363 -582 1446 -570 
C 1478 -544 1510 -512 1510 -480 
L 1510 3302 
C 1510 3354 1523 3392 1594 3418 
C 1645 3450 1690 3488 1690 3539 
C 1690 3552 1645 3578 1574 3603 
L 1504 3610 
C 1683 3968 1862 4397 2022 4902 
C 2029 4915 2061 4934 2125 4954 
C 2202 4960 2253 4979 2253 5018 
C 2253 5050 2176 5082 2042 5120 
C 1939 5146 1818 5184 1664 5229 
L 1664 5229 
z
M 3565 5178 
L 3494 5107 
C 3648 4902 3750 4640 3827 4320 
C 3853 4230 3891 4160 3942 4115 
L 2803 4115 
C 2458 4115 2189 4134 1997 4173 
L 2118 3891 
C 2259 3923 2483 3942 2803 3942 
L 6010 3942 
C 6067 3942 6106 3968 6106 4032 
C 6106 4051 6042 4128 5926 4262 
C 5805 4384 5715 4448 5664 4448 
C 5638 4448 5581 4397 5504 4301 
L 5331 4115 
L 4230 4115 
L 4262 4160 
C 4307 4237 4339 4307 4339 4384 
C 4339 4506 4269 4634 4147 4762 
C 4032 4896 3840 5037 3565 5178 
L 3565 5178 
z
M 2509 3322 
L 2624 3040 
C 2765 3072 2989 3091 3309 3091 
L 5613 3091 
C 5664 3091 5702 3117 5702 3181 
C 5702 3206 5638 3277 5523 3398 
C 5414 3514 5331 3578 5280 3578 
C 5254 3578 5203 3533 5133 3450 
C 5043 3347 4986 3290 4960 3264 
L 3309 3264 
C 2963 3264 2701 3283 2509 3322 
L 2509 3322 
z
M 2483 2426 
L 2598 2144 
C 2739 2176 2963 2189 3283 2189 
L 5587 2189 
C 5638 2189 5677 2214 5677 2278 
C 5677 2304 5613 2374 5498 2496 
C 5389 2618 5306 2682 5254 2682 
C 5229 2682 5178 2637 5107 2547 
C 5018 2451 4960 2394 4934 2368 
L 3283 2368 
C 2938 2368 2675 2387 2483 2426 
L 2483 2426 
z
M 2528 1677 
C 2541 1523 2554 1370 2554 1216 
L 2554 -128 
C 2554 -243 2541 -358 2528 -474 
C 2528 -538 2579 -570 2656 -570 
C 2707 -570 2771 -557 2848 -538 
C 2893 -518 2925 -499 2925 -474 
L 2925 -83 
L 5043 -83 
L 5043 -442 
C 5043 -506 5088 -544 5152 -544 
C 5216 -544 5293 -531 5382 -512 
C 5434 -493 5472 -467 5472 -429 
C 5446 -250 5440 -102 5440 6 
L 5440 1165 
C 5440 1210 5453 1248 5504 1286 
C 5562 1325 5600 1363 5600 1402 
C 5600 1440 5536 1504 5434 1594 
C 5318 1683 5242 1728 5203 1728 
C 5178 1728 5133 1702 5088 1651 
L 4934 1491 
L 2938 1491 
C 2803 1568 2669 1626 2528 1677 
L 2528 1677 
z
M 2925 90 
L 2925 1318 
L 5043 1318 
L 5043 90 
L 2925 90 
z
" transform="scale(0.015625)"/>
       <path id="SimSong-Regular-5e26" d="M 237 4250 
L 358 3968 
C 499 4000 723 4019 1037 4019 
L 1574 4019 
L 1574 3507 
C 1574 3456 1562 3379 1549 3277 
C 1555 3226 1606 3206 1683 3206 
C 1741 3206 1818 3213 1914 3238 
C 1965 3251 1997 3277 1997 3315 
C 1978 3450 1971 3539 1971 3590 
L 1971 4019 
L 2899 4019 
L 2899 3488 
C 2899 3437 2886 3354 2874 3251 
C 2880 3200 2931 3181 3008 3181 
C 3066 3181 3142 3187 3238 3213 
C 3290 3226 3322 3251 3322 3290 
C 3302 3430 3296 3520 3296 3565 
L 3296 4019 
L 4275 4019 
L 4275 3507 
C 4275 3456 4262 3379 4250 3277 
C 4256 3226 4307 3206 4384 3206 
C 4442 3206 4518 3213 4614 3238 
C 4659 3251 4691 3277 4691 3315 
C 4678 3450 4672 3539 4672 3590 
L 4672 4019 
L 5939 4019 
C 5990 4019 6029 4045 6029 4102 
C 6029 4128 5958 4211 5843 4346 
C 5715 4480 5626 4550 5568 4550 
C 5542 4550 5485 4499 5402 4397 
C 5306 4288 5242 4218 5210 4192 
L 4672 4192 
L 4672 4806 
C 4672 4858 4691 4896 4755 4922 
C 4845 4947 4902 4986 4902 5050 
C 4902 5082 4819 5101 4672 5114 
L 4250 5178 
C 4262 5107 4275 5024 4275 4922 
L 4275 4192 
L 3296 4192 
L 3296 4832 
C 3296 4883 3315 4922 3379 4947 
C 3469 4973 3526 5011 3526 5075 
C 3526 5101 3443 5126 3302 5139 
L 2874 5203 
C 2886 5133 2899 5050 2899 4947 
L 2899 4192 
L 1971 4192 
L 1971 4755 
C 1971 4806 1990 4845 2054 4870 
C 2144 4896 2202 4934 2202 4998 
C 2202 5030 2118 5056 1978 5069 
C 1811 5094 1677 5114 1549 5126 
C 1562 5056 1574 4973 1574 4870 
L 1574 4192 
L 1037 4192 
C 691 4192 429 4211 237 4250 
L 237 4250 
z
M 966 3251 
L 864 3232 
C 838 2950 755 2714 589 2522 
C 410 2381 314 2285 314 2227 
C 314 2170 339 2118 378 2074 
C 416 2022 480 2003 557 2003 
C 685 2003 794 2048 870 2138 
C 973 2266 1037 2451 1037 2694 
C 1037 2746 1030 2803 1030 2867 
L 2899 2867 
L 2899 2067 
L 1702 2067 
C 1587 2131 1472 2189 1350 2227 
C 1363 2099 1376 1990 1376 1901 
L 1376 333 
C 1376 243 1363 160 1350 90 
C 1350 13 1402 -19 1478 -19 
C 1536 -19 1606 -6 1690 13 
C 1734 32 1766 58 1766 90 
L 1766 1894 
L 2899 1894 
L 2899 77 
C 2899 -166 2886 -352 2874 -486 
C 2874 -557 2925 -595 3008 -595 
C 3066 -595 3142 -582 3245 -557 
C 3283 -531 3315 -499 3315 -467 
C 3302 -256 3296 -77 3296 77 
L 3296 1894 
L 4480 1894 
L 4480 538 
C 4480 448 4429 403 4301 403 
C 4134 403 3917 429 3635 480 
L 3603 378 
C 3974 282 4147 179 4166 64 
C 4166 -38 4224 -96 4301 -96 
C 4390 -96 4506 -64 4640 -6 
C 4806 64 4902 173 4902 314 
L 4902 1677 
C 4902 1715 4928 1754 5005 1792 
C 5069 1824 5107 1869 5107 1920 
C 5107 1958 5037 2035 4915 2150 
C 4787 2234 4710 2278 4678 2278 
C 4646 2278 4589 2246 4518 2189 
C 4467 2150 4422 2106 4384 2067 
L 3296 2067 
L 3296 2867 
L 5312 2867 
C 5216 2650 5114 2451 4992 2285 
L 5062 2221 
C 5280 2355 5485 2496 5683 2637 
C 5728 2675 5792 2707 5882 2720 
C 5958 2726 6010 2758 6010 2810 
C 6010 2874 5939 2963 5811 3091 
C 5683 3213 5594 3277 5549 3277 
C 5517 3277 5472 3251 5427 3206 
L 5261 3040 
L 1011 3040 
L 973 3251 
L 966 3251 
z
" transform="scale(0.015625)"/>
       <path id="SimSong-Regular-5bbd" d="M 435 3674 
L 557 3392 
C 698 3424 922 3443 1235 3443 
L 1978 3443 
L 1978 3136 
C 1978 3085 1965 3008 1952 2906 
C 1958 2854 2010 2829 2080 2829 
C 2144 2829 2221 2835 2310 2861 
C 2362 2880 2394 2906 2394 2944 
C 2374 3078 2368 3168 2368 3219 
L 2368 3443 
L 3597 3443 
L 3597 3136 
C 3597 3085 3590 3008 3578 2906 
C 3578 2854 3629 2829 3706 2829 
C 3770 2829 3846 2835 3936 2861 
C 3987 2880 4019 2906 4019 2944 
C 4000 3078 3994 3168 3994 3219 
L 3994 3443 
L 5734 3443 
C 5792 3443 5830 3469 5830 3526 
C 5830 3552 5760 3635 5645 3770 
C 5555 3859 5485 3923 5434 3955 
C 5530 4013 5632 4077 5734 4147 
C 5786 4198 5862 4230 5952 4243 
C 6029 4250 6080 4282 6080 4333 
C 6080 4397 6003 4499 5875 4627 
C 5741 4762 5651 4832 5600 4832 
C 5568 4832 5517 4800 5466 4749 
C 5414 4685 5357 4627 5293 4570 
L 3315 4570 
C 3354 4634 3379 4704 3379 4774 
C 3379 4845 3309 4922 3187 5005 
C 3072 5082 2867 5165 2579 5254 
L 2522 5190 
C 2701 5062 2835 4909 2925 4717 
C 2938 4653 2970 4608 3002 4570 
L 909 4570 
L 909 4749 
L 794 4781 
C 755 4589 710 4442 659 4352 
C 595 4250 512 4154 410 4077 
C 314 4000 262 3930 262 3872 
C 262 3814 288 3770 326 3738 
C 365 3699 422 3680 474 3680 
C 531 3680 589 3693 640 3725 
C 736 3789 813 3898 851 4051 
C 870 4128 883 4243 896 4390 
L 5350 4390 
C 5254 4179 5158 3994 5043 3840 
L 5120 3770 
C 5152 3789 5178 3802 5203 3821 
L 5197 3821 
C 5107 3712 5043 3642 5011 3616 
L 3994 3616 
L 3994 3802 
C 3994 3853 4019 3898 4083 3923 
C 4173 3949 4224 3987 4224 4045 
C 4224 4077 4141 4102 4000 4115 
L 3578 4179 
C 3590 4102 3597 4019 3597 3923 
L 3597 3616 
L 2368 3616 
L 2368 3802 
C 2368 3853 2394 3898 2458 3923 
C 2547 3949 2598 3987 2598 4045 
C 2598 4077 2515 4102 2374 4115 
L 1952 4179 
C 1965 4102 1978 4019 1978 3923 
L 1978 3616 
L 1235 3616 
C 890 3616 627 3635 435 3674 
L 435 3674 
z
M 1338 2829 
C 1350 2598 1363 2406 1363 2253 
L 1363 1389 
C 1363 1203 1350 992 1338 755 
C 1338 685 1389 653 1466 653 
C 1517 653 1574 659 1664 685 
C 1702 710 1734 736 1734 774 
L 1734 2490 
L 4339 2490 
L 4339 755 
C 4339 685 4378 653 4435 653 
C 4499 653 4570 659 4666 685 
C 4704 710 4736 736 4736 774 
L 4704 1389 
L 4704 2349 
C 4704 2381 4723 2413 4781 2445 
C 4845 2483 4883 2515 4883 2547 
C 4883 2579 4819 2643 4710 2739 
C 4614 2816 4550 2854 4518 2854 
C 4493 2854 4442 2829 4390 2784 
C 4339 2746 4288 2707 4224 2669 
L 1696 2669 
C 1587 2733 1472 2784 1338 2829 
L 1338 2829 
z
M 2758 2227 
C 2771 2099 2778 1946 2778 1766 
C 2778 1350 2701 998 2554 691 
C 2349 378 2061 128 1683 -26 
C 1318 -205 864 -358 320 -499 
L 378 -576 
C 973 -448 1434 -320 1766 -192 
C 2227 -26 2566 179 2790 435 
C 3027 685 3168 1158 3200 1856 
C 3200 1894 3226 1926 3302 1952 
C 3379 1978 3424 2022 3424 2080 
C 3424 2106 3328 2138 3155 2170 
C 3027 2195 2899 2214 2758 2227 
L 2758 2227 
z
M 3213 1306 
C 3226 1190 3238 1030 3238 826 
L 3238 -128 
C 3238 -269 3302 -358 3418 -410 
L 3411 -410 
C 3462 -435 3578 -461 3731 -474 
C 3891 -486 4115 -499 4403 -499 
C 4704 -499 4973 -486 5216 -467 
C 5453 -448 5613 -429 5696 -403 
C 5830 -378 5907 -326 5907 -256 
C 5907 -186 5824 -122 5690 -77 
C 5606 0 5574 109 5562 275 
C 5549 365 5542 550 5530 832 
L 5440 832 
C 5338 531 5261 301 5197 134 
C 5146 -6 5082 -102 4979 -154 
C 4902 -179 4704 -198 4403 -198 
C 4134 -198 3936 -192 3808 -186 
C 3667 -173 3603 -134 3603 -77 
L 3603 954 
C 3603 1005 3629 1037 3699 1062 
C 3789 1088 3846 1126 3846 1178 
C 3846 1210 3776 1235 3654 1254 
C 3482 1280 3341 1293 3213 1306 
L 3213 1306 
z
" transform="scale(0.015625)"/>
       <path id="TimesNewRomanPSMT-20" transform="scale(0.015625)"/>
       <path id="TimesNewRomanPSMT-28" d="M 1988 -1253 
L 1988 -1369 
Q 1516 -1131 1200 -813 
Q 750 -359 506 256 
Q 263 872 263 1534 
Q 263 2503 741 3301 
Q 1219 4100 1988 4444 
L 1988 4313 
Q 1603 4100 1356 3731 
Q 1109 3363 987 2797 
Q 866 2231 866 1616 
Q 866 947 969 400 
Q 1050 -31 1165 -292 
Q 1281 -553 1476 -793 
Q 1672 -1034 1988 -1253 
z
" transform="scale(0.015625)"/>
       <path id="TimesNewRomanPSMT-47" d="M 3928 4334 
L 4038 2997 
L 3928 2997 
Q 3763 3497 3500 3750 
Q 3122 4116 2528 4116 
Q 1719 4116 1297 3475 
Q 944 2934 944 2188 
Q 944 1581 1178 1081 
Q 1413 581 1792 348 
Q 2172 116 2572 116 
Q 2806 116 3025 175 
Q 3244 234 3447 350 
L 3447 1575 
Q 3447 1894 3398 1992 
Q 3350 2091 3248 2142 
Q 3147 2194 2891 2194 
L 2891 2313 
L 4531 2313 
L 4531 2194 
L 4453 2194 
Q 4209 2194 4119 2031 
Q 4056 1916 4056 1575 
L 4056 278 
Q 3697 84 3347 -6 
Q 2997 -97 2569 -97 
Q 1341 -97 703 691 
Q 225 1281 225 2053 
Q 225 2613 494 3125 
Q 813 3734 1369 4063 
Q 1834 4334 2469 4334 
Q 2700 4334 2889 4296 
Q 3078 4259 3425 4131 
Q 3600 4066 3659 4066 
Q 3719 4066 3761 4120 
Q 3803 4175 3813 4334 
L 3928 4334 
z
" transform="scale(0.015625)"/>
       <path id="TimesNewRomanPSMT-42" d="M 2956 2163 
Q 3397 2069 3616 1863 
Q 3919 1575 3919 1159 
Q 3919 844 3719 555 
Q 3519 266 3170 133 
Q 2822 0 2106 0 
L 106 0 
L 106 116 
L 266 116 
Q 531 116 647 284 
Q 719 394 719 750 
L 719 3488 
Q 719 3881 628 3984 
Q 506 4122 266 4122 
L 106 4122 
L 106 4238 
L 1938 4238 
Q 2450 4238 2759 4163 
Q 3228 4050 3475 3764 
Q 3722 3478 3722 3106 
Q 3722 2788 3528 2536 
Q 3334 2284 2956 2163 
z
M 1319 2331 
Q 1434 2309 1582 2298 
Q 1731 2288 1909 2288 
Q 2366 2288 2595 2386 
Q 2825 2484 2947 2687 
Q 3069 2891 3069 3131 
Q 3069 3503 2766 3765 
Q 2463 4028 1881 4028 
Q 1569 4028 1319 3959 
L 1319 2331 
z
M 1319 306 
Q 1681 222 2034 222 
Q 2600 222 2897 476 
Q 3194 731 3194 1106 
Q 3194 1353 3059 1581 
Q 2925 1809 2622 1940 
Q 2319 2072 1872 2072 
Q 1678 2072 1540 2065 
Q 1403 2059 1319 2044 
L 1319 306 
z
" transform="scale(0.015625)"/>
       <path id="TimesNewRomanPSMT-2f" d="M 1794 4444 
L 259 -88 
L 9 -88 
L 1544 4444 
L 1794 4444 
z
" transform="scale(0.015625)"/>
       <path id="TimesNewRomanPSMT-73" d="M 2050 2947 
L 2050 1972 
L 1947 1972 
Q 1828 2431 1642 2597 
Q 1456 2763 1169 2763 
Q 950 2763 815 2647 
Q 681 2531 681 2391 
Q 681 2216 781 2091 
Q 878 1963 1175 1819 
L 1631 1597 
Q 2266 1288 2266 781 
Q 2266 391 1970 151 
Q 1675 -88 1309 -88 
Q 1047 -88 709 6 
Q 606 38 541 38 
Q 469 38 428 -44 
L 325 -44 
L 325 978 
L 428 978 
Q 516 541 762 319 
Q 1009 97 1316 97 
Q 1531 97 1667 223 
Q 1803 350 1803 528 
Q 1803 744 1651 891 
Q 1500 1038 1047 1263 
Q 594 1488 453 1669 
Q 313 1847 313 2119 
Q 313 2472 555 2709 
Q 797 2947 1181 2947 
Q 1350 2947 1591 2875 
Q 1750 2828 1803 2828 
Q 1853 2828 1881 2850 
Q 1909 2872 1947 2947 
L 2050 2947 
z
" transform="scale(0.015625)"/>
       <path id="TimesNewRomanPSMT-29" d="M 144 4313 
L 144 4444 
Q 619 4209 934 3891 
Q 1381 3434 1625 2820 
Q 1869 2206 1869 1541 
Q 1869 572 1392 -226 
Q 916 -1025 144 -1369 
L 144 -1253 
Q 528 -1038 776 -670 
Q 1025 -303 1145 264 
Q 1266 831 1266 1447 
Q 1266 2113 1163 2663 
Q 1084 3094 967 3353 
Q 850 3613 656 3853 
Q 463 4094 144 4313 
z
" transform="scale(0.015625)"/>
      </defs>
      <use xlink:href="#SimSong-Regular-901a"/>
      <use xlink:href="#SimSong-Regular-4fe1" x="99.999985"/>
      <use xlink:href="#SimSong-Regular-5e26" x="199.999969"/>
      <use xlink:href="#SimSong-Regular-5bbd" x="299.999954"/>
      <use xlink:href="#TimesNewRomanPSMT-20" x="399.999939"/>
      <use xlink:href="#TimesNewRomanPSMT-28" x="424.999939"/>
      <use xlink:href="#TimesNewRomanPSMT-47" x="458.30072"/>
      <use xlink:href="#TimesNewRomanPSMT-42" x="530.517517"/>
      <use xlink:href="#TimesNewRomanPSMT-2f" x="597.216736"/>
      <use xlink:href="#TimesNewRomanPSMT-73" x="624.999939"/>
      <use xlink:href="#TimesNewRomanPSMT-29" x="663.915955"/>
     </g>
    </g>
   </g>
   <g id="matplotlib.axis_2">
    <g id="ytick_1">
     <g id="line2d_6">
      <defs>
       <path id="m10c735f094" d="M 0 0 
L -3.5 0 
" style="stroke: #000000; stroke-width: 0.8"/>
      </defs>
      <g>
       <use xlink:href="#m10c735f094" x="44.455625" y="150.596937" style="stroke: #000000; stroke-width: 0.8"/>
      </g>
     </g>
     <g id="text_7">
      <!-- 1.0 -->
      <g transform="translate(22.455625 154.763187) scale(0.12 -0.12)">
       <defs>
        <path id="TimesNewRomanPSMT-2e" d="M 800 606 
Q 947 606 1047 504 
Q 1147 403 1147 259 
Q 1147 116 1045 14 
Q 944 -88 800 -88 
Q 656 -88 554 14 
Q 453 116 453 259 
Q 453 406 554 506 
Q 656 606 800 606 
z
" transform="scale(0.015625)"/>
       </defs>
       <use xlink:href="#TimesNewRomanPSMT-31"/>
       <use xlink:href="#TimesNewRomanPSMT-2e" x="50"/>
       <use xlink:href="#TimesNewRomanPSMT-30" x="75"/>
      </g>
     </g>
    </g>
    <g id="ytick_2">
     <g id="line2d_7">
      <g>
       <use xlink:href="#m10c735f094" x="44.455625" y="115.496109" style="stroke: #000000; stroke-width: 0.8"/>
      </g>
     </g>
     <g id="text_8">
      <!-- 1.5 -->
      <g transform="translate(22.455625 119.662359) scale(0.12 -0.12)">
       <defs>
        <path id="TimesNewRomanPSMT-35" d="M 2778 4238 
L 2534 3706 
L 1259 3706 
L 981 3138 
Q 1809 3016 2294 2522 
Q 2709 2097 2709 1522 
Q 2709 1188 2573 903 
Q 2438 619 2231 419 
Q 2025 219 1772 97 
Q 1413 -75 1034 -75 
Q 653 -75 479 54 
Q 306 184 306 341 
Q 306 428 378 495 
Q 450 563 559 563 
Q 641 563 702 538 
Q 763 513 909 409 
Q 1144 247 1384 247 
Q 1750 247 2026 523 
Q 2303 800 2303 1197 
Q 2303 1581 2056 1914 
Q 1809 2247 1375 2428 
Q 1034 2569 447 2591 
L 1259 4238 
L 2778 4238 
z
" transform="scale(0.015625)"/>
       </defs>
       <use xlink:href="#TimesNewRomanPSMT-31"/>
       <use xlink:href="#TimesNewRomanPSMT-2e" x="50"/>
       <use xlink:href="#TimesNewRomanPSMT-35" x="75"/>
      </g>
     </g>
    </g>
    <g id="ytick_3">
     <g id="line2d_8">
      <g>
       <use xlink:href="#m10c735f094" x="44.455625" y="80.395281" style="stroke: #000000; stroke-width: 0.8"/>
      </g>
     </g>
     <g id="text_9">
      <!-- 2.0 -->
      <g transform="translate(22.455625 84.561531) scale(0.12 -0.12)">
       <use xlink:href="#TimesNewRomanPSMT-32"/>
       <use xlink:href="#TimesNewRomanPSMT-2e" x="50"/>
       <use xlink:href="#TimesNewRomanPSMT-30" x="75"/>
      </g>
     </g>
    </g>
    <g id="ytick_4">
     <g id="line2d_9">
      <g>
       <use xlink:href="#m10c735f094" x="44.455625" y="45.294453" style="stroke: #000000; stroke-width: 0.8"/>
      </g>
     </g>
     <g id="text_10">
      <!-- 2.5 -->
      <g transform="translate(22.455625 49.460703) scale(0.12 -0.12)">
       <use xlink:href="#TimesNewRomanPSMT-32"/>
       <use xlink:href="#TimesNewRomanPSMT-2e" x="50"/>
       <use xlink:href="#TimesNewRomanPSMT-35" x="75"/>
      </g>
     </g>
    </g>
    <g id="ytick_5">
     <g id="line2d_10">
      <g>
       <use xlink:href="#m10c735f094" x="44.455625" y="10.193624" style="stroke: #000000; stroke-width: 0.8"/>
      </g>
     </g>
     <g id="text_11">
      <!-- 3.0 -->
      <g transform="translate(22.455625 14.359874) scale(0.12 -0.12)">
       <defs>
        <path id="TimesNewRomanPSMT-33" d="M 325 3431 
Q 506 3859 782 4092 
Q 1059 4325 1472 4325 
Q 1981 4325 2253 3994 
Q 2459 3747 2459 3466 
Q 2459 3003 1878 2509 
Q 2269 2356 2469 2072 
Q 2669 1788 2669 1403 
Q 2669 853 2319 450 
Q 1863 -75 997 -75 
Q 569 -75 414 31 
Q 259 138 259 259 
Q 259 350 332 419 
Q 406 488 509 488 
Q 588 488 669 463 
Q 722 447 909 348 
Q 1097 250 1169 231 
Q 1284 197 1416 197 
Q 1734 197 1970 444 
Q 2206 691 2206 1028 
Q 2206 1275 2097 1509 
Q 2016 1684 1919 1775 
Q 1784 1900 1550 2001 
Q 1316 2103 1072 2103 
L 972 2103 
L 972 2197 
Q 1219 2228 1467 2375 
Q 1716 2522 1828 2728 
Q 1941 2934 1941 3181 
Q 1941 3503 1739 3701 
Q 1538 3900 1238 3900 
Q 753 3900 428 3381 
L 325 3431 
z
" transform="scale(0.015625)"/>
       </defs>
       <use xlink:href="#TimesNewRomanPSMT-33"/>
       <use xlink:href="#TimesNewRomanPSMT-2e" x="50"/>
       <use xlink:href="#TimesNewRomanPSMT-30" x="75"/>
      </g>
     </g>
    </g>
    <g id="text_12">
     <!-- 训练批次时长 (s) -->
     <g transform="translate(15.88875 135.148685) rotate(-90) scale(0.12 -0.12)">
      <defs>
       <path id="SimSong-Regular-8bad" d="M 909 5005 
L 845 4941 
C 1152 4698 1370 4397 1523 4038 
C 1568 3878 1658 3802 1773 3802 
C 1824 3802 1869 3834 1914 3898 
C 1952 3962 1984 4032 1984 4096 
C 1984 4237 1888 4378 1722 4531 
C 1555 4685 1286 4838 909 5005 
L 909 5005 
z
M 2733 5005 
C 2758 4858 2778 4736 2778 4640 
C 2778 2848 2746 1760 2682 1363 
C 2630 954 2547 614 2438 333 
C 2323 38 2176 -243 1990 -512 
L 2061 -608 
C 2362 -320 2598 -6 2765 346 
C 2893 608 2989 934 3066 1331 
C 3130 1690 3168 2797 3168 4659 
C 3168 4698 3194 4723 3258 4749 
C 3322 4774 3360 4806 3360 4845 
C 3360 4883 3264 4915 3098 4941 
L 2733 5005 
L 2733 5005 
z
M 5222 5005 
C 5235 4826 5248 4614 5248 4371 
L 5248 109 
C 5248 -83 5235 -288 5222 -512 
C 5229 -582 5280 -621 5357 -621 
C 5421 -621 5498 -608 5594 -589 
C 5638 -563 5677 -538 5677 -499 
C 5651 -269 5645 -70 5645 109 
L 5645 4627 
C 5645 4678 5670 4717 5741 4742 
C 5843 4768 5901 4813 5901 4870 
C 5901 4896 5830 4922 5702 4947 
C 5510 4973 5357 4992 5222 5005 
L 5222 5005 
z
M 3949 4506 
C 3962 4326 3974 4115 3974 3872 
L 3974 883 
C 3974 691 3962 480 3949 262 
C 3955 186 4006 154 4083 154 
C 4147 154 4224 160 4314 186 
C 4365 205 4403 237 4403 282 
C 4378 499 4371 704 4371 883 
L 4371 4128 
C 4371 4179 4397 4218 4467 4243 
C 4570 4269 4627 4314 4627 4371 
C 4627 4397 4550 4422 4422 4448 
L 3949 4506 
L 3949 4506 
z
M 192 3258 
L 358 2976 
C 454 3008 550 3021 666 3034 
L 1235 3034 
L 1235 518 
C 1222 429 1184 352 1107 288 
C 1043 237 1011 198 1011 173 
C 1011 141 1094 64 1254 -58 
C 1312 -96 1370 -122 1421 -122 
C 1459 -122 1485 -90 1510 -38 
L 1517 -38 
C 1555 64 1587 134 1632 186 
L 2451 1357 
L 2406 1434 
L 1606 550 
L 1606 2950 
C 1606 3014 1632 3072 1715 3123 
C 1766 3142 1805 3187 1805 3238 
C 1805 3264 1773 3302 1728 3341 
C 1568 3462 1459 3526 1408 3526 
C 1357 3526 1267 3418 1152 3213 
L 653 3213 
C 512 3213 365 3226 186 3258 
L 192 3258 
z
" transform="scale(0.015625)"/>
       <path id="SimSong-Regular-7ec3" d="M 3712 5254 
C 3648 4947 3565 4621 3469 4269 
L 3066 4269 
C 2720 4269 2451 4282 2259 4320 
L 2381 4038 
C 2522 4070 2746 4090 3066 4090 
L 3418 4090 
C 3341 3834 3251 3558 3149 3264 
C 2861 3264 2605 3283 2387 3322 
L 2509 3040 
C 2682 3072 2874 3085 3085 3085 
C 3008 2867 2918 2637 2829 2394 
C 2778 2278 2701 2163 2579 2061 
C 2541 2022 2515 1984 2515 1952 
C 2515 1901 2592 1830 2726 1754 
C 2752 1734 2803 1728 2867 1728 
C 2931 1728 3002 1786 3091 1907 
L 4275 1907 
L 4275 70 
C 4275 32 4262 -13 4230 -70 
C 4198 -83 4154 -96 4102 -96 
C 4006 -96 3731 -45 3264 51 
L 3232 -45 
C 3718 -173 3949 -288 3968 -390 
C 3987 -525 4038 -595 4102 -595 
C 4186 -595 4294 -557 4435 -480 
C 4589 -397 4672 -243 4672 -26 
L 4672 1907 
L 5805 1907 
C 5869 1907 5907 1926 5907 1978 
C 5907 2016 5875 2054 5830 2093 
C 5587 2298 5440 2400 5395 2400 
C 5350 2400 5229 2291 5050 2086 
L 4672 2086 
L 4672 2893 
C 4672 2931 4691 2970 4755 2995 
C 4819 3021 4858 3066 4858 3117 
C 4858 3149 4787 3219 4666 3322 
C 4563 3411 4486 3456 4442 3456 
C 4416 3456 4358 3418 4288 3354 
C 4256 3328 4218 3302 4179 3264 
L 3520 3264 
L 3795 4090 
L 5862 4090 
C 5920 4090 5958 4115 5958 4179 
C 5958 4205 5888 4288 5766 4422 
C 5638 4550 5549 4621 5491 4621 
C 5472 4621 5414 4570 5325 4474 
C 5235 4358 5171 4294 5139 4269 
L 3853 4269 
L 3994 4730 
C 4019 4774 4070 4813 4134 4838 
C 4275 4864 4358 4896 4358 4947 
C 4358 4998 4307 5043 4250 5069 
L 3712 5254 
L 3712 5254 
z
M 1261 5107 
C 1043 4442 845 3917 640 3526 
C 563 3379 480 3277 390 3226 
C 339 3200 314 3168 314 3142 
C 314 3091 365 3002 461 2867 
C 493 2822 531 2803 570 2803 
C 595 2803 627 2816 666 2854 
C 762 2906 851 2944 934 2970 
L 1594 3123 
C 1434 2797 1267 2502 1101 2234 
C 890 1888 704 1690 531 1645 
C 493 1638 461 1619 461 1587 
C 461 1530 518 1414 627 1248 
C 640 1197 691 1178 742 1178 
C 781 1178 813 1184 845 1210 
C 934 1254 1018 1286 1101 1312 
L 2330 1741 
L 2298 1856 
L 973 1658 
C 1203 1958 1632 2586 2253 3546 
C 2278 3578 2317 3597 2368 3610 
C 2477 3622 2541 3654 2547 3706 
C 2547 3738 2515 3770 2477 3795 
L 2042 4083 
C 1907 3795 1786 3526 1664 3264 
L 755 3232 
C 973 3597 1229 4051 1517 4602 
C 1555 4640 1606 4659 1677 4672 
C 1766 4678 1824 4704 1824 4749 
C 1818 4774 1779 4806 1722 4845 
L 1267 5114 
L 1261 5107 
z
M 4288 2086 
L 3098 2086 
C 3226 2426 3341 2758 3456 3091 
L 4275 3091 
L 4275 2086 
L 4288 2086 
z
M 3539 1133 
L 3680 1120 
C 3770 1120 3821 1139 3834 1178 
C 3834 1210 3763 1267 3635 1350 
L 3206 1587 
C 3059 1235 2880 909 2662 608 
C 2470 339 2285 115 2093 -64 
L 2150 -154 
C 2758 294 3219 723 3539 1126 
L 3539 1133 
z
M 4928 1530 
L 4870 1466 
C 5216 1120 5459 685 5626 166 
C 5670 6 5760 -70 5875 -70 
C 5926 -70 5971 -38 6022 26 
C 6054 77 6080 141 6080 224 
C 6080 442 5984 659 5818 864 
C 5638 1082 5344 1306 4928 1530 
L 4928 1530 
z
M 2368 1056 
C 1734 787 1043 570 294 397 
C 371 275 448 166 512 64 
C 602 -77 672 -147 717 -147 
C 749 -147 774 -109 774 -38 
L 774 64 
C 774 90 858 134 1037 205 
C 1478 371 1939 634 2426 979 
L 2368 1056 
L 2368 1056 
z
" transform="scale(0.015625)"/>
       <path id="SimSong-Regular-6279" d="M 314 3725 
L 429 3443 
C 576 3475 800 3494 1114 3494 
L 1165 3494 
L 1165 2093 
C 858 2022 531 1958 186 1901 
L 339 1536 
C 378 1414 435 1357 480 1357 
C 493 1357 512 1382 544 1434 
C 544 1472 550 1498 557 1523 
C 557 1562 602 1594 710 1619 
C 864 1670 1024 1722 1165 1779 
L 1165 19 
C 1165 -32 1158 -70 1139 -90 
C 1101 -109 1056 -122 992 -122 
C 877 -122 685 -96 416 -45 
L 384 -141 
C 730 -230 890 -326 909 -429 
C 909 -538 960 -595 1024 -595 
C 1088 -595 1190 -563 1331 -499 
C 1459 -448 1530 -326 1530 -134 
L 1530 1926 
C 1830 2061 2118 2214 2400 2381 
L 2374 2432 
C 2106 2342 1818 2259 1530 2189 
L 1530 3494 
L 2400 3494 
C 2451 3494 2483 3520 2483 3578 
C 2483 3597 2426 3661 2323 3770 
C 2227 3878 2157 3936 2106 3936 
C 2086 3936 2035 3898 1971 3821 
L 1818 3667 
L 1530 3667 
L 1530 4832 
C 1530 4883 1555 4922 1626 4941 
C 1715 4966 1766 5005 1766 5062 
C 1766 5088 1696 5114 1574 5133 
L 1139 5178 
C 1152 5030 1165 4858 1165 4666 
L 1165 3667 
L 1114 3667 
C 768 3667 506 3686 314 3725 
L 314 3725 
z
M 2547 5152 
C 2560 5043 2566 4902 2573 4736 
L 2573 307 
C 2573 256 2541 198 2477 141 
C 2438 102 2413 70 2413 51 
C 2413 0 2477 -77 2605 -198 
C 2656 -243 2701 -269 2739 -269 
C 2778 -269 2816 -230 2854 -166 
C 2950 -45 3040 32 3117 83 
L 4051 736 
L 3994 806 
L 2970 275 
L 2970 2816 
L 4070 2816 
C 4122 2816 4154 2842 4154 2906 
C 4154 2925 4102 2976 4013 3066 
C 3859 3200 3770 3270 3738 3270 
C 3706 3270 3648 3226 3571 3149 
C 3494 3059 3437 3008 3411 2989 
L 2970 2989 
L 2970 4762 
C 2970 4832 3002 4883 3066 4909 
C 3149 4934 3200 4966 3200 5018 
C 3187 5056 3149 5082 3091 5094 
L 2547 5152 
L 2547 5152 
z
M 4198 5152 
C 4211 5037 4224 4870 4224 4640 
L 4224 83 
C 4224 -83 4275 -186 4365 -237 
C 4403 -269 4486 -294 4614 -320 
C 4736 -333 4909 -346 5133 -346 
C 5350 -346 5549 -333 5728 -314 
C 5901 -288 6016 -256 6074 -230 
C 6176 -205 6234 -147 6234 -70 
C 6234 6 6163 70 6035 134 
C 5971 205 5939 326 5933 499 
C 5920 602 5914 806 5907 1101 
L 5798 1101 
C 5734 781 5683 538 5645 358 
C 5613 198 5574 96 5517 58 
C 5453 19 5325 6 5133 6 
C 4960 6 4832 13 4749 26 
C 4659 32 4621 70 4621 141 
L 4621 2547 
C 5139 2829 5555 3117 5875 3411 
L 6010 3398 
C 6048 3398 6074 3418 6080 3456 
C 6080 3488 6016 3539 5901 3610 
L 5491 3827 
C 5248 3405 4954 3034 4621 2733 
L 4621 4781 
C 4621 4832 4646 4870 4717 4896 
C 4819 4922 4877 4966 4877 5024 
C 4877 5056 4800 5082 4672 5101 
L 4198 5152 
L 4198 5152 
z
" transform="scale(0.015625)"/>
       <path id="SimSong-Regular-6b21" d="M 2912 5203 
C 2816 4576 2688 4032 2534 3571 
C 2394 3149 2189 2682 1920 2176 
L 1997 2093 
C 2342 2522 2618 2931 2810 3341 
C 2874 3482 2944 3642 3014 3814 
L 5107 3814 
C 4928 3475 4736 3174 4518 2918 
L 4595 2848 
C 4909 3059 5203 3270 5485 3501 
C 5536 3546 5613 3578 5702 3590 
C 5779 3597 5830 3629 5830 3686 
C 5830 3750 5754 3846 5626 3981 
C 5491 4109 5402 4179 5350 4179 
C 5318 4179 5267 4160 5216 4122 
C 5165 4077 5107 4032 5043 3994 
L 3078 3994 
C 3168 4250 3258 4538 3341 4864 
C 3341 4870 3379 4883 3450 4896 
C 3514 4909 3558 4934 3558 4973 
C 3558 5011 3482 5056 3354 5094 
L 2912 5203 
L 2912 5203 
z
M 685 4678 
L 621 4608 
C 800 4371 928 4077 1018 3725 
C 1069 3546 1171 3456 1299 3456 
C 1357 3456 1408 3488 1459 3558 
C 1498 3635 1530 3706 1530 3782 
C 1530 3923 1453 4064 1325 4211 
C 1197 4358 986 4512 685 4678 
L 685 4678 
z
M 2054 3776 
L 954 1907 
C 909 1818 851 1760 768 1734 
C 691 1709 525 1702 262 1702 
L 237 1594 
C 589 1555 787 1517 858 1472 
C 909 1434 934 1376 934 1306 
C 934 1158 928 960 922 717 
C 883 346 864 102 864 -6 
C 877 -179 986 -269 1152 -269 
C 1280 -269 1363 -179 1382 -6 
C 1382 122 1357 378 1318 774 
C 1306 1075 1299 1312 1299 1478 
C 1299 1606 1363 1850 1504 2208 
C 1658 2573 1888 3085 2182 3731 
L 2054 3776 
L 2054 3776 
z
M 3418 3302 
C 3430 3174 3437 3072 3437 2989 
C 3424 2490 3366 2035 3251 1626 
C 3117 1235 2944 902 2720 627 
C 2406 250 1965 -134 1395 -544 
L 1459 -627 
C 1939 -384 2349 -122 2682 160 
C 3002 429 3232 710 3379 998 
C 3552 1274 3686 1670 3776 2182 
L 3757 2182 
C 3808 1946 3872 1728 3949 1523 
C 4077 1203 4250 890 4454 570 
C 4653 282 4902 13 5197 -230 
C 5434 -422 5600 -518 5677 -518 
C 5690 -518 5709 -474 5747 -397 
C 5798 -294 5888 -224 6035 -186 
L 6054 -128 
C 5606 96 5242 326 4960 582 
C 4678 838 4429 1152 4224 1523 
C 4064 1811 3936 2176 3834 2618 
L 3859 2950 
C 3859 2989 3885 3021 3955 3046 
C 4026 3072 4070 3110 4070 3162 
C 4070 3200 3974 3226 3795 3251 
L 3418 3302 
L 3418 3302 
z
" transform="scale(0.015625)"/>
       <path id="SimSong-Regular-65f6" d="M 2534 3674 
L 2656 3392 
C 2797 3424 3021 3443 3334 3443 
L 4672 3443 
L 4672 134 
C 4672 70 4666 32 4653 19 
C 4614 -6 4563 -19 4493 -19 
C 4301 -19 3987 13 3552 77 
L 3514 -26 
C 4064 -141 4339 -256 4365 -371 
C 4371 -499 4442 -570 4550 -570 
C 4621 -570 4723 -531 4864 -467 
L 4864 -467 
C 4992 -403 5069 -256 5069 -32 
L 5069 3443 
L 6061 3443 
C 6118 3443 6157 3469 6157 3526 
C 6157 3552 6086 3635 5971 3770 
C 5843 3904 5747 3974 5696 3974 
C 5670 3974 5613 3923 5523 3821 
C 5434 3712 5370 3642 5338 3616 
L 5069 3616 
L 5069 4832 
C 5069 4890 5094 4928 5171 4954 
C 5267 4979 5325 5018 5325 5082 
C 5325 5107 5248 5126 5120 5152 
L 4653 5203 
C 4666 5043 4672 4858 4672 4653 
L 4672 3616 
L 3334 3616 
C 2989 3616 2726 3635 2534 3674 
L 2534 3674 
z
M 659 4678 
C 672 4448 685 4256 685 4102 
L 685 742 
C 685 557 672 346 659 102 
C 659 38 710 6 787 6 
C 838 6 902 13 973 38 
C 1024 58 1056 83 1056 122 
L 1056 717 
L 1984 717 
L 1984 256 
C 1984 186 2022 154 2086 154 
C 2150 154 2221 160 2317 186 
C 2355 211 2387 237 2387 275 
L 2355 890 
L 2355 4224 
C 2355 4256 2362 4288 2394 4320 
C 2432 4358 2458 4390 2458 4422 
C 2458 4454 2394 4518 2285 4614 
C 2189 4691 2125 4730 2093 4730 
C 2067 4730 2016 4704 1965 4653 
C 1914 4608 1862 4563 1798 4518 
L 1018 4518 
C 909 4582 794 4634 659 4678 
L 659 4678 
z
M 1056 2765 
L 1056 4339 
L 1984 4339 
L 1984 2765 
L 1056 2765 
z
M 3008 2829 
L 2944 2765 
C 3213 2419 3411 1984 3552 1466 
C 3590 1306 3686 1229 3802 1229 
C 3846 1229 3891 1261 3936 1325 
C 3974 1389 4006 1453 4006 1523 
C 4006 1722 3917 1926 3763 2144 
C 3616 2362 3366 2586 3008 2829 
L 3008 2829 
z
M 1056 890 
L 1056 2592 
L 1984 2592 
L 1984 890 
L 1056 890 
z
" transform="scale(0.015625)"/>
       <path id="SimSong-Regular-957f" d="M 1491 5178 
C 1517 5050 1536 4851 1536 4582 
L 1536 2643 
L 1139 2643 
C 794 2643 531 2662 339 2701 
L 454 2419 
C 595 2451 819 2464 1139 2464 
L 1536 2464 
L 1536 179 
C 1536 51 1510 -38 1446 -109 
C 1395 -147 1363 -179 1363 -218 
C 1363 -262 1446 -358 1600 -512 
C 1651 -563 1709 -595 1760 -595 
C 1798 -589 1837 -550 1856 -480 
C 1914 -365 1997 -282 2099 -230 
L 3398 531 
L 3341 602 
L 1958 19 
L 1958 2464 
L 2950 2464 
C 3046 2035 3200 1664 3398 1344 
C 3565 1088 3789 832 4058 582 
C 4320 352 4653 134 5050 -64 
C 5357 -218 5574 -294 5677 -294 
C 5690 -294 5722 -250 5760 -160 
C 5811 -51 5901 19 6054 64 
L 6080 122 
C 5498 294 5024 474 4666 672 
C 4294 864 3968 1107 3699 1395 
C 3456 1664 3258 2022 3104 2464 
L 5587 2464 
C 5645 2464 5683 2490 5683 2554 
C 5683 2579 5613 2662 5491 2797 
C 5363 2925 5274 2995 5216 2995 
C 5197 2995 5139 2944 5050 2848 
C 4960 2739 4896 2669 4864 2643 
L 1958 2643 
L 1958 4755 
C 1965 4832 1990 4883 2054 4915 
C 2157 4954 2227 4998 2227 5056 
C 2227 5088 2182 5107 2106 5120 
L 1491 5178 
L 1491 5178 
z
M 4742 4582 
L 4877 4570 
C 4902 4570 4928 4589 4934 4627 
C 4934 4666 4877 4730 4781 4819 
L 4454 5082 
C 3846 4314 3066 3661 2118 3123 
L 2176 3046 
C 3258 3539 4115 4051 4742 4576 
L 4742 4582 
z
" transform="scale(0.015625)"/>
      </defs>
      <use xlink:href="#SimSong-Regular-8bad"/>
      <use xlink:href="#SimSong-Regular-7ec3" x="99.999985"/>
      <use xlink:href="#SimSong-Regular-6279" x="199.999969"/>
      <use xlink:href="#SimSong-Regular-6b21" x="299.999954"/>
      <use xlink:href="#SimSong-Regular-65f6" x="399.999939"/>
      <use xlink:href="#SimSong-Regular-957f" x="499.999924"/>
      <use xlink:href="#TimesNewRomanPSMT-20" x="599.999908"/>
      <use xlink:href="#TimesNewRomanPSMT-28" x="624.999908"/>
      <use xlink:href="#TimesNewRomanPSMT-73" x="658.30069"/>
      <use xlink:href="#TimesNewRomanPSMT-29" x="697.216705"/>
     </g>
    </g>
   </g>
   <g id="line2d_11">
    <path d="M 61.798551 14.498086 
L 65.449693 45.449728 
L 69.100836 67.558043 
L 72.751978 84.139279 
L 76.403121 97.035797 
L 80.054263 107.35301 
L 83.705405 115.794367 
L 87.356548 122.828831 
L 91.00769 128.78107 
L 94.658832 133.882989 
L 98.309975 138.304652 
L 101.961117 142.173607 
L 105.612259 145.587391 
L 109.263402 148.621865 
L 112.914544 151.336922 
L 116.565686 153.780472 
L 120.216829 155.991304 
L 123.867971 158.001151 
L 127.519113 159.836228 
L 131.170256 161.518383 
L 134.821398 163.065965 
L 138.47254 164.471439 
L 142.123683 165.726178 
L 145.774825 166.154457 
L 149.425967 166.286942 
L 153.07711 166.405596 
L 156.728252 166.516595 
L 160.379394 166.620657 
L 164.030537 166.718411 
L 167.681679 166.810416 
L 171.332821 166.897163 
L 174.983964 166.979091 
L 178.635106 167.05659 
L 182.286249 167.13001 
L 185.937391 167.199665 
L 189.588533 167.265838 
L 193.239676 167.328782 
L 196.890818 167.38873 
L 200.54196 167.445888 
L 204.193103 167.500449 
L 207.844245 167.552585 
L 211.495387 167.602454 
L 215.14653 167.650201 
L 218.797672 167.695959 
L 222.448814 167.739849 
L 226.099957 167.781983 
L 229.751099 167.822465 
L 233.402241 167.86139 
L 237.053384 167.898846 
L 240.704526 167.934915 
L 244.355668 167.969672 
L 248.006811 168.003188 
L 251.657953 168.035528 
L 255.309095 168.066753 
L 258.960238 168.096919 
L 262.61138 168.12608 
L 266.262522 168.137409 
L 269.913665 168.137409 
L 273.564807 168.137409 
L 277.215949 168.137409 
L 280.867092 168.137409 
L 284.518234 168.137409 
L 288.169376 168.137409 
L 291.820519 168.137409 
L 295.471661 168.137409 
L 299.122804 168.137409 
L 302.773946 168.137409 
L 306.425088 168.137409 
L 310.076231 168.137409 
L 313.727373 168.137409 
L 317.378515 168.137409 
L 321.029658 168.137409 
L 324.6808 168.137409 
L 328.331942 168.137409 
L 331.983085 168.137409 
L 335.634227 168.137409 
L 339.285369 168.137409 
L 342.936512 168.137409 
L 346.587654 168.137409 
L 350.238796 168.137409 
L 353.889939 168.137409 
L 357.541081 168.137409 
L 361.192223 168.137409 
L 364.843366 168.137409 
L 368.494508 168.137409 
L 372.14565 168.137409 
L 375.796793 168.137409 
L 379.447935 168.137409 
L 383.099077 168.137409 
L 386.75022 168.137409 
L 390.401362 168.137409 
L 394.052504 168.137409 
L 397.703647 168.137409 
L 401.354789 168.137409 
L 405.005932 168.137409 
L 408.657074 168.137409 
" clip-path="url(#pb9bc98a147)" style="fill: none; stroke: #2878b5; stroke-width: 1.5; stroke-linecap: square"/>
   </g>
   <g id="patch_3">
    <path d="M 44.455625 175.819375 
L 44.455625 6.81612 
" style="fill: none; stroke: #000000; stroke-width: 0.8; stroke-linejoin: miter; stroke-linecap: square"/>
   </g>
   <g id="patch_4">
    <path d="M 426 175.819375 
L 426 6.81612 
" style="fill: none; stroke: #000000; stroke-width: 0.8; stroke-linejoin: miter; stroke-linecap: square"/>
   </g>
   <g id="patch_5">
    <path d="M 44.455625 175.819375 
L 426 175.819375 
" style="fill: none; stroke: #000000; stroke-width: 0.8; stroke-linejoin: miter; stroke-linecap: square"/>
   </g>
   <g id="patch_6">
    <path d="M 44.455625 6.81612 
L 426 6.81612 
" style="fill: none; stroke: #000000; stroke-width: 0.8; stroke-linejoin: miter; stroke-linecap: square"/>
   </g>
   <g id="legend_1">
    <g id="patch_7">
     <path d="M 324.96 33.382995 
L 417.6 33.382995 
Q 420 33.382995 420 30.982995 
L 420 15.21612 
Q 420 12.81612 417.6 12.81612 
L 324.96 12.81612 
Q 322.56 12.81612 322.56 15.21612 
L 322.56 30.982995 
Q 322.56 33.382995 324.96 33.382995 
z
" style="fill: #ffffff; opacity: 0.8; stroke: #cccccc; stroke-linejoin: miter"/>
    </g>
    <g id="line2d_12">
     <path d="M 327.36 21.81612 
L 339.36 21.81612 
L 351.36 21.81612 
" style="fill: none; stroke: #2878b5; stroke-width: 1.5; stroke-linecap: square"/>
    </g>
    <g id="text_13">
     <!-- OPT-350M -->
     <g transform="translate(360.96 26.01612) scale(0.12 -0.12)">
      <defs>
       <path id="TimesNewRomanPSMT-4f" d="M 2341 4334 
Q 3166 4334 3770 3707 
Q 4375 3081 4375 2144 
Q 4375 1178 3765 540 
Q 3156 -97 2291 -97 
Q 1416 -97 820 525 
Q 225 1147 225 2134 
Q 225 3144 913 3781 
Q 1509 4334 2341 4334 
z
M 2281 4106 
Q 1713 4106 1369 3684 
Q 941 3159 941 2147 
Q 941 1109 1384 550 
Q 1725 125 2284 125 
Q 2881 125 3270 590 
Q 3659 1056 3659 2059 
Q 3659 3147 3231 3681 
Q 2888 4106 2281 4106 
z
" transform="scale(0.015625)"/>
       <path id="TimesNewRomanPSMT-50" d="M 1313 1984 
L 1313 750 
Q 1313 350 1400 253 
Q 1519 116 1759 116 
L 1922 116 
L 1922 0 
L 106 0 
L 106 116 
L 266 116 
Q 534 116 650 291 
Q 713 388 713 750 
L 713 3488 
Q 713 3888 628 3984 
Q 506 4122 266 4122 
L 106 4122 
L 106 4238 
L 1659 4238 
Q 2228 4238 2556 4120 
Q 2884 4003 3109 3725 
Q 3334 3447 3334 3066 
Q 3334 2547 2992 2222 
Q 2650 1897 2025 1897 
Q 1872 1897 1694 1919 
Q 1516 1941 1313 1984 
z
M 1313 2163 
Q 1478 2131 1606 2115 
Q 1734 2100 1825 2100 
Q 2150 2100 2386 2351 
Q 2622 2603 2622 3003 
Q 2622 3278 2509 3514 
Q 2397 3750 2190 3867 
Q 1984 3984 1722 3984 
Q 1563 3984 1313 3925 
L 1313 2163 
z
" transform="scale(0.015625)"/>
       <path id="TimesNewRomanPSMT-54" d="M 3703 4238 
L 3750 3244 
L 3631 3244 
Q 3597 3506 3538 3619 
Q 3441 3800 3280 3886 
Q 3119 3972 2856 3972 
L 2259 3972 
L 2259 734 
Q 2259 344 2344 247 
Q 2463 116 2709 116 
L 2856 116 
L 2856 0 
L 1059 0 
L 1059 116 
L 1209 116 
Q 1478 116 1591 278 
Q 1659 378 1659 734 
L 1659 3972 
L 1150 3972 
Q 853 3972 728 3928 
Q 566 3869 450 3700 
Q 334 3531 313 3244 
L 194 3244 
L 244 4238 
L 3703 4238 
z
" transform="scale(0.015625)"/>
       <path id="TimesNewRomanPSMT-2d" d="M 259 1672 
L 1875 1672 
L 1875 1200 
L 259 1200 
L 259 1672 
z
" transform="scale(0.015625)"/>
       <path id="TimesNewRomanPSMT-4d" d="M 2619 0 
L 981 3566 
L 981 734 
Q 981 344 1066 247 
Q 1181 116 1431 116 
L 1581 116 
L 1581 0 
L 106 0 
L 106 116 
L 256 116 
Q 525 116 638 278 
Q 706 378 706 734 
L 706 3503 
Q 706 3784 644 3909 
Q 600 4000 483 4061 
Q 366 4122 106 4122 
L 106 4238 
L 1306 4238 
L 2844 922 
L 4356 4238 
L 5556 4238 
L 5556 4122 
L 5409 4122 
Q 5138 4122 5025 3959 
Q 4956 3859 4956 3503 
L 4956 734 
Q 4956 344 5044 247 
Q 5159 116 5409 116 
L 5556 116 
L 5556 0 
L 3756 0 
L 3756 116 
L 3906 116 
Q 4178 116 4288 278 
Q 4356 378 4356 734 
L 4356 3566 
L 2722 0 
L 2619 0 
z
" transform="scale(0.015625)"/>
      </defs>
      <use xlink:href="#TimesNewRomanPSMT-4f"/>
      <use xlink:href="#TimesNewRomanPSMT-50" x="72.216797"/>
      <use xlink:href="#TimesNewRomanPSMT-54" x="127.832031"/>
      <use xlink:href="#TimesNewRomanPSMT-2d" x="179.791016"/>
      <use xlink:href="#TimesNewRomanPSMT-33" x="213.091797"/>
      <use xlink:href="#TimesNewRomanPSMT-35" x="263.091797"/>
      <use xlink:href="#TimesNewRomanPSMT-30" x="313.091797"/>
      <use xlink:href="#TimesNewRomanPSMT-4d" x="363.091797"/>
     </g>
    </g>
   </g>
  </g>
 </g>
 <defs>
  <clipPath id="pb9bc98a147">
   <rect x="44.455625" y="6.81612" width="381.544375" height="169.003255"/>
  </clipPath>
 </defs>
</svg>
